/* XPM */
static char *_d3a08427b604c768f1bb0e800de4ffbuWar0IThEQsNNcm2[] = {
/* columns rows colors chars-per-pixel */
"64 64 90 1 ",
"  c #010000",
". c #0A0000",
"X c #0C0B0B",
"o c #130000",
"O c #1A0000",
"+ c #130C0C",
"@ c #1A0D0D",
"# c #161616",
"$ c #1C1616",
"% c #220E0E",
"& c #221616",
"* c #2A1616",
"= c gray14",
"- c #302424",
"; c #500000",
": c #5E0000",
"> c #650000",
", c #690000",
"< c #720000",
"1 c #8E0000",
"2 c #9B0000",
"3 c #A60000",
"4 c #AC0000",
"5 c #B30000",
"6 c #BC0000",
"7 c #B51800",
"8 c #BD1D00",
"9 c #BD2300",
"0 c #BD3500",
"q c #C40000",
"w c #CC0000",
"e c #C10C00",
"r c #CF0B00",
"t c #D20000",
"y c #DD0000",
"u c #D21300",
"i c #D61B00",
"p c #E30000",
"a c #ED0000",
"s c #F30000",
"d c red",
"f c #C62300",
"g c #CC2400",
"h c #C32900",
"j c #D32400",
"k c #DD2100",
"l c #CE3100",
"z c #D63200",
"x c #E82500",
"c c #E43200",
"v c #BD7500",
"b c #C05200",
"n c #DC5600",
"m c #D55E00",
"M c #D95800",
"N c #FD4900",
"B c #E55500",
"V c #CE6200",
"C c #CE6900",
"Z c #D46200",
"A c #DF6100",
"S c #D56A00",
"D c #DB6C00",
"F c #D57000",
"G c #E56100",
"H c #E16700",
"J c #E36900",
"K c #E16D00",
"L c #EA6800",
"P c #EC6A00",
"I c #F66A00",
"U c #F36C00",
"Y c #FF6A00",
"T c #F86D00",
"R c #FF6F00",
"E c #FF7100",
"W c #FFB800",
"Q c #FFBC00",
"! c #FFC300",
"~ c #EDD900",
"^ c #FDD300",
"/ c #FFD400",
"( c #F7DE00",
") c #FBD800",
"_ c #FFD800",
"` c #FFDD00",
"' c #EAE600",
"] c #F2E000",
"[ c #F4E200",
"{ c #FFE200",
/* pixels */
"  .  .X#X :#X :.  >  X$X      X#@ X. #    &  @#X#X  # :  #;  #  ",
" .# #  X&X .    X#+ X. #    >  @:X#.: .. .X#X .#.     #  X#X    ",
"   #<  .,#. , &  # X#X  .  .X#X .#.  .# #  X#X< . 1  #+ X  #    ",
"$ .@#X#X  .   @#X  #3 X.1 ..2X&X .    X#@.X  #  . $  @#X#     # ",
"1#. 6#X     #  X$X .    X#+ X. #    &  # X#X4 ..5..#X  #.   # # ",
" X&X. .   X#+ X. #w X q  +6X#X  .  .@#X  #.  .# #X X#X6.  q  #X ",
"+. #    $ .+#X# . .  .X#X  #4 X q . 6X X .   .X#@.X. #  . &  X X",
"#X  . 5. #q  #q  .# #  X&X  .   X#+ X. #    $  + XqX  q.# +#X  #",
"6   6. X#X  .  . #X#X .# . .#  X.X#+  w # q$ .w# #. ..#  X#X.   ",
" . #X#X..# .X q  XqX#X..    @# .X# #    #. X#X  .. .. w#  5$    ",
"#  X X#+      @# .   #  .  .4X.X6    . #X#X .$ .  # .X.@#+    ..",
"X# .w###4 X 6. ##X  .  . #X#X  # .  #  X.X#+    # 3$ .6# #.  .# ",
" X#X  .  .  X#X .# .  . 6X X5+.     @# .   #  ..#. X#X.  . . #X#",
"t  #4.X #  X.X#X      &# .X# #  . #. XqX# 3 #.6#X#X..& .  # .X.+",
"&X      @# .X#@#b.X 7. X#X  .  .X X#X .# .  #  # X#+  F # 4$ .0 ",
"@#  . &. X#X     . #X#X .# .  # vX X4+. 0   X# .X# #  ..#..X#X. ",
" .X '  Xg #+      @$X.X# #  ..#. X#X# `.#.q   M .&    # .X..#X  ",
".   +#X..  #X _  .6X#Xn  . . #X X .$ .  # .X..#X    .  #{ .#4#X ",
"G #..#&X  .  . #X X .# .  #  X..#X.._ # q$ .S# #.. .#  X#X.  .  ",
" .@ X .# .    `X  f+      +$X. . #  ..#. X#X. .. ..#{   q&X U.# ",
" X  #X  .   X#X.X# #  . #..X_X# x.#. #X X  $ .  # .X..#X.   . X$",
"X.[#X#9 + #. X$X  .  .  X X .# .  #  X .`+. f # +&X.   #. ..#  X",
"$X .   . #@ X  # .(   3X  n+      X#X.X# #  ..#. X#X. ..#.{#  g ",
"@#    &  +  #+ ..   @#X.X# #    #. X/X# j.#.  X X .$ .  # .X .#X",
".&    # `X#X6 ..S.+#@ X  $    &  X..#+    . @$X .#_#X g. X.##X. ",
"    X#@.X  $  . &  X .# `.  j  &X.X# #  ..#. X#X. .. .X X +  &_ ",
"X 9. X. #X  ..  X&X.  .#   .#. X$X  _.#.6#  L X$    # .X..#X    ",
" .##X X#.& .  # /X#X9 .. .+#+ X .& .  &  X..#     . (&  w#X#H X.",
"#  X$+ .    #.@.X  #  . $  +`.#+4 . S X$X .. #  ..#. X#X.. .  X#",
"+. .{#X 5  .D+  #X  ..  ##X +#.#   .#. X$X   .{..#6   V$ .  # .X",
"  # . .. .X#X X#.& ..   _X +6 ..m.X + X  $ .  &  @..#X    . +$X ",
". X&_.  h  X$+      X#+.X. #  ..$. X .#X.   )..&6..#J#  ..#  X#X",
"# .._.#.g#  X#.$  . #  X$@ .    #.&.X  ${ X 6  #C.#+  .   $&X.. ",
"o& .  #  #$@ .. # _#..9. #    $. $  #X. ..  &&X +#.#   .  ^##Xj ",
"    ##&.+  #    &. $  #.  .. .##{  #q&X D   .#$@   .  # $ X .$ .",
"  &. -  #X  `.#.6#. m.#$ .  #  #&@  .   ##&.X. #   .$ {#..f@. . ",
"  =#X X#o$ .  #  #&@..    ##`.  q## D $. $  #   ..  ##X +#.#   .",
"#  # +{.. g . &.X. #    $..=  #X  .. .##X   .&_.  w  #Z+   .  $#",
"*.Xo #    *. &  #X  o.  ##. ^##&j.@ #@ $$@ .    ##$.X  #  . $. #",
"~ $ 6. .Mo##X X#o$.   #  #&+ .    = &.X. ## {  .q=. AX  .. .##X.",
"+o #& _   f&. #X  o . =#X X#o#..  #  $$X..    ]#  5 &#Z   &  &  ",
"#X .. ..##X +#.#.   o _#.X4.. P . * @. #    $ .#  #X  .  .##X   ",
"##_.. 9 .#&X..     #$ +. #   .* .$  #X  { # g#. X#.#..  #  =$X .",
"    .#$ +. #_ + g  &  #X  . .o##X X#o#... #  #*X`.. q ..M  . #  ",
"  & .#. #X  . ..##X  ..#.o  _ .#fX#.     #& @. #  ..& .&  #X  . ",
". #$`  #w#XoK # .$&X..    .#& @  #    $ .&  &XQ   8.##X X#.#.   ",
"#  #&+.o .   .& +o &  + W .#w *Xn . ..##X . .#..  #  #&X. .    #",
"Q  .i$* o & .* .#X  . . #$X X#.#.o  #  #!X#.t & B#& +..#    & .$",
".o# .#I+#.uo    ##%..&    # o$.&#+    o.#&. R ##q...c  ##X. ..  ",
" ###@..&    # o$ &Y+. u # #&  +# #.. o# o##Xo. .   ###% E#& t   ",
"c& *#+o  .o.#*  X# #o. o#  ##Xo.Ro&.u. #@. *    # o& +#X    o.+$",
" .  .#T...q .XzX# .o   #+#@. &    # o@ @#X    o R*. w#%#l. o#  #",
"#Xo. o   #X#@ .* .  #  @N@$Xe   ..+&  X# #o.oo#  X#Xo. o .X +#N.",
" *6.+ k oX @#X  ..o.+*   . #o..o#  X XN  .r. #+#@. * .o.# o@ %#X",
"    o +*  X#+#d.Xo4 .#pXo..o   #+#@. & .  # o+ @#X .  #.s*. p#X#",
"oo o#. X#Xo. .  X X#+. * .  # o@d@&Xt   oo+&  .. #o..o#. X#X. .o",
"d&+.q   w+o%#+    . X@ .X  #. .oX..%.XXXto#.wX X+o * .  + .X.@#+",
".   o.@% .X  #y.Xoq.OXyX$Xoo .X.+X+ .&..  + .+.%#+  . o. %y.oow#",
"  ..X. X#X*  o . X+X@ o& ..   .+t%++q   y  @..X  #. .oX. XoX$X.o",
" . X@X@o * .s o 6+ @#+ o. o.@@ .X  #.  oX. X#X$Xo.a.o tX  .& .  ",
"@ o+ %#+. . . @@ .o  #o ooX.pX Xq  o . X+X+ .* ...  .Xo%#+  . . ",
"@@ .s +#q X.w.o# X*Xoo ..X+X+. & .. + o+.@#+. o . p@..p X#o. .X.",
".X$X*X.o .. %X+ .& .. + y#.%6Xo p o .% . ..#. .o .. #X*.oo .  . ",
"X .*a.@ q . .o#X. . . Xo .X .#. .o ..X XpX op.o . +o . .. . o..O"
};
