/* XPM */
static char *_cced5c032e24598b2a24c95f367abedzNC3MdhqZxQ13xS9[] = {
/* columns rows colors chars-per-pixel */
"64 64 203 2 ",
"   c #030003",
".  c #0A0002",
"X  c #090C05",
"o  c #020009",
"O  c #0A0009",
"+  c #010C0E",
"@  c #120003",
"#  c #180000",
"$  c #110B05",
"%  c #13000C",
"&  c #001704",
"*  c #011A06",
"=  c #0B1A06",
"-  c #001709",
";  c #0D170A",
":  c #021B0A",
">  c #0A1A0C",
",  c #151706",
"<  c #141B05",
"1  c #11190C",
"2  c #1B1A08",
"3  c #010014",
"4  c #080017",
"5  c #070F17",
"6  c #02001B",
"7  c #0E001F",
"8  c #120014",
"9  c #1F0012",
"0  c #130C14",
"q  c #1A001D",
"w  c #0B1712",
"e  c #021B12",
"r  c #0A1B13",
"t  c #02171B",
"y  c #0A161B",
"u  c #001A1C",
"i  c #0C1A1C",
"p  c #101712",
"a  c #181717",
"s  c #121A13",
"d  c #1F1D11",
"f  c #10171A",
"g  c #111A1C",
"h  c #1F1B1D",
"j  c #210008",
"k  c #2D000B",
"l  c #261A07",
"z  c #2C1A07",
"x  c #26170B",
"c  c #2D170F",
"v  c #311905",
"b  c #361709",
"n  c #38170B",
"m  c #331C0D",
"M  c #3C1C0B",
"N  c #221C17",
"B  c #2A1B17",
"V  c #361B12",
"C  c #311B1E",
"Z  c #002607",
"A  c #0C2606",
"S  c #01250B",
"D  c #0E2508",
"F  c #012A0C",
"G  c #0F2C0C",
"H  c #12230E",
"J  c #1A240D",
"K  c #15290E",
"L  c #123407",
"P  c #1A3C05",
"I  c #1A340A",
"U  c #173C0E",
"Y  c #1E3E0C",
"T  c #062712",
"R  c #042A14",
"E  c #0C2A15",
"W  c #022519",
"Q  c #0C231F",
"!  c #112612",
"~  c #1D2514",
"^  c #14291E",
"/  c #00301C",
"(  c #1D3210",
")  c #1C3F16",
"_  c #2E2603",
"`  c #2C2A07",
"'  c #26260A",
"]  c #24290B",
"[  c #2A290C",
"{  c #382707",
"}  c #332806",
"|  c #33250D",
" . c #392208",
".. c #32290B",
"X. c #2F3505",
"o. c #203F01",
"O. c #2F3D09",
"+. c #262815",
"@. c #272D1C",
"#. c #332616",
"$. c #332C10",
"%. c #36231C",
"&. c #213C15",
"*. c #233F1B",
"=. c #3B341D",
"-. c #000022",
";. c #010024",
":. c #050027",
">. c #0A0023",
",. c #00002A",
"<. c #060029",
"1. c #00002C",
"2. c #0C002C",
"3. c #100F2A",
"4. c #071620",
"5. c #0A1724",
"6. c #031922",
"7. c #0C1B25",
"8. c #041A28",
"9. c #0B1A2A",
"0. c #101722",
"q. c #131C22",
"w. c #1E1B25",
"e. c #17162E",
"r. c #131A2C",
"t. c #1B1D29",
"y. c #010033",
"u. c #010034",
"i. c #0B0033",
"p. c #0C0D37",
"a. c #02003C",
"s. c #0A003B",
"d. c #0B1A33",
"f. c #0D1B3B",
"g. c #111734",
"h. c #111A32",
"j. c #131A34",
"k. c #1A163D",
"l. c #111C3B",
"z. c #280024",
"x. c #270029",
"c. c #2D1625",
"v. c #221A24",
"b. c #002624",
"n. c #092625",
"m. c #012A25",
"M. c #02262C",
"N. c #0E272F",
"B. c #022A2A",
"V. c #152622",
"C. c #17292A",
"Z. c #03372D",
"A. c #00382C",
"S. c #153826",
"D. c #002433",
"F. c #052C31",
"G. c #092834",
"H. c #013133",
"J. c #22262B",
"K. c #342627",
"L. c #362929",
"P. c #202B36",
"I. c #3C2830",
"U. c #293635",
"Y. c #431B08",
"T. c #423D05",
"R. c #423410",
"E. c #43292C",
"W. c #49292D",
"Q. c #16440D",
"!. c #1C430B",
"~. c #1D4D0A",
"^. c #1C4F10",
"/. c #16401A",
"(. c #25440C",
"). c #2C410A",
"_. c #2D4F0F",
"`. c #344109",
"'. c #3C420B",
"]. c #3B4D0D",
"[. c #234014",
"{. c #2D4211",
"}. c #294219",
"|. c #2B4D18",
" X c #324910",
".X c #34421A",
"XX c #214623",
"oX c #424A11",
"OX c #454B1B",
"+X c #484E1B",
"@X c #444F27",
"#X c #030044",
"$X c #0A0045",
"%X c #01004D",
"&X c #0F004B",
"*X c #0C1B45",
"=X c #0F1B4D",
"-X c #121640",
";X c #101A44",
":X c #141C4C",
">X c #060052",
",X c #0F0050",
"<X c #000058",
/* pixels */
". . .   j.    .   -.*   . . O       o Y       . 6 .   . o     .   o (.  @   . 1.8 .   .   . . .   j.        -.A o   o . o     O ",
"                >     . o y.e           .     X.        s.+ . .         O   m       o ,.]     .   .     O d.      o 1.>       Y ",
"    .   . v     .   6 1   @         h.        6     .   . . .   . e.    .   6       .     o . . i . O     i.    .       .       ",
"u.          . o w         -..   .   O   .   . h.        -.      .   .   . . &.o       %X        .     . . 7.  o   . o         O ",
"        .   h..     . ,.        O         ~.    .   1..       .         s         1.    @ .   . .   . @X  .     1.  O   . q.@ . ",
".       .   6 * o O . O         r.    . o 4 T   . O         O g       . :.2 . . @           s .     O ,.Z                     o ",
". .   . . <.>   O o     . .   &.        %X3         .       g.  . .   3 =       . .     . [   .   O 1.2 . . o     .   O .     ,.",
"  : y.      i.#.@   . .               .   :.<     .     O   O . . . . o i.S .   .     .   .   .     . <.r   . .   . .       m 6 ",
"_.<X  . *X    - . . . .   . @   O .       u.:           .   .   . O   . <.Z .   O     .   o   .     . a.>   .       | o . .     ",
"              $X  . .     . &XD     . .   . .   . .       7 =     .     @   . . . .   . ,X= .   O     .   O       ].      ,.@   ",
". .   . .   . .   . M.    . . o . . . . . .       v.    . .   . . . .   .       M.            . .   .     . . . O     .   .   o ",
". O . >.. b .   .     . . . . .   . . B..   @       .   @ .       @ B.    .         .   .     . . b.    O           . n q.  .   ",
"    f   .   . .         . .     . .   . . q..     .     .   @           n.    @     . . . . .       . 7.  q.  .     o .     ,.  ",
"  c .     . . . .   . . s..             .   y .       y..   .   .   .     k.        :.    . . . .   .   O   .   . . u..   @ = . ",
"              . .   @ . .     ,.    .     .   .   =X        ,.        .   . . .  ..   .   u..               6 .   a.X .         ",
"  .         .           .       .         ` .   .   u.O     o   .     . `         ,.          .     d.@ . @ +.    9   `.@       ",
"  . . oX            .         i.  .       ;X        : @   .   . O .     *.O                 O .   o     . . .   .   .   o   O {.",
"o       +     . 2   w.B.@ o.        7.    .   ] @   @ .       . . :Xo     . >     .   o .   .                   a.  o   . .     ",
"s.  .   7 . .   2.  . . Q.  ,..   .   @   #   XX.       o       .   O       f         S.    .   9.      .   @   =               ",
"      .         .   . .                   z     .   t..   @   . .   .   +XO       6       . g.        .   O . y.  .   o   }.    ",
".   .     d . .   o     @     .     .     .           r..   .   z .         .   .   f.    . . |   '.6 @   .   H .   . y.. o     ",
"    .     -.W             O   '       . .     .       . 4.. . @ @     .   . .   .   @         .                 O .   j     o a.",
"  o u.      >X      . . @         *   a       .     . .   . . .     @ F.      .     V.  o         o   . @ .     O @         9.% ",
"!.:.. . _ .   ~             t.      .     4.  .       .   . . . . . @ J.. .   .                 6 .   . D.    .     !.        . ",
"    .     .   <.  M.    .           o .       O .     . C     . .     . .           . r . . *           . .   . @ m     . 6   . ",
"        .         @   .         G.      .   6.  . .   . . ^ .     .             @     .       9.  #X.   . .           .   . .   ",
"      1.  m     .         .         O @     .   .     .                 o .             m p.        . @   .   @ .   .   (.      ",
"    |.                  . y.  .   l.  Y.      . .         o         o . . C.          . .   .     o . H.. 7.    . .         3   ",
"  ].      .             6             . N .     . t m..   .           m.  . o I..   .       . .           .     .   s.      l   ",
"      o         .       . .           @ .         O @     . .     .           .       .         @           i.    y.. .       . ",
"  .   o           .     .       M           .                     .     . .   .   .   @   . .   .   M       G .   E . P     .   ",
"      g                 O . o 6     R.      .         . @   .   . ^     b.  i @   @.  . 0 |     . . .     @         .   ,.  . s ",
"=       k     . J . t 8.  M       o .           .             . .   @ o       @ O         . . . .       o   @   #X.     .   @   ",
",.    . -.  .   #X  .   7.  6         .           . .   .     . .   6.          u           .   h.  .     . .   R   .           ",
"        o   .               O       .         e     .   F.              . . . .       l.  . d.. O   .         #X.         ].  O ",
".         e   .                 o   o         @ D.    Z.              .     . .       O   .   [.  ..a.        F .     %X  .     ",
"          ,.* .   .     o     h.  o     .         . . .   .   .     @           .   . O       . .   .       . . .   . o   .   1.",
"  x ,.O o   y.  .     .           *   !           .     . .   . 9.@ . .       .     i                 . .   . . .     . . . | ' ",
"z a.    .X    e             Q             v.        . .     J..               .   .   .   . . . 3   . -.p   . .      X    .     ",
"          .   :.  e     o   o   O       O O       O                   u .             F     1 . O   . .     W.. . ;X      1.  . ",
"o                 . . .                 O   u     .     . .     U.        .         .   . .   3   y.        .   .     .   .     ",
"    o a.  V .                   o   5   o                 .     . .     7..       .     '.g   O       . .             . d..     ",
"o . ]             .       u.O     p.. -X          .             h O       .     .       .       .       o 8.  .         . . 1.  ",
". |     .     . .       a.    .         G.        .             >.        !.          @ .                       .   #X.   . X   ",
"  . o       .   . . .       .       .           . o   <   o     l.          .       z..       o   .               o % .         ",
"            .   .     .         /.    =.            .     /         7.  O   o   O       S .         i     .   .   =   i         ",
"      f     . .               ,.          .   x.    .   T.                  q     o   {.o o   O .                       3     5.",
"<     . F o   . >   N.6.  ^.            .       c..       }                   q         .X                      <.              ",
"6 .     ,.  .   ;.  . . l   y.      9.    . o   O       u.        v                   ,.        [     ;XO   .   r               ",
"      .     .     o                 )                   ,.        Q.                  ,.o       L         .   a.        . f.    ",
"      .   o   .   o             .   o   -.O     o g     .     .       y.        !.            .     y.  .     ;       ,.        ",
"          1.K .                       u.        [ .   . .   . .     ,.  o o   >                   3                   &       #X",
"  2 6       <.. O   . O   o O       .     L..       .                   A..             .             6..                   m * ",
"d.6   . 1 O   S         .       .     K.                            N .       .     .       .     m..             . 0           ",
"              <.O E.  .                         %.    .         .         .   P.    O   O o .               Q     r   .   3     ",
"        .       o .           S a.      .                   > 6       .       . O   O   O , #X  o   O           o .           . ",
".     O   I .   . O O o   .           * a.                      .   T <.    . .       .     O     = y.  o   O           r.      ",
"    Y             .           i           .     r y.        5..         o     | 6 o   o   3.        o       B u..           ,.  ",
"  j.        .     .     ( u.        i                 s ,.        $.o o   O o .     = 6         f..       .       F u.o   o K . ",
".             3 ,.    .   OX                : a.o o     ..    .     .     r 1.        5.        .       F 3         f.          ",
"    .   *X                  3 o   o o g.    . o           u..       w   .               y.        U o .       O       6   o     ",
"  .     . .     u.        0.                o u.        O.    .             ,..       g       .           1.        Y o       f.",
"F       o   = y.        r                 ; %X      . #.            O   $ -.        {                 o #X        !.            ",
"-.        >                   #X  o o   P                 3 u.        ).                2 1.o       B O o     O   o   : 6       "
};
