/* XPM */
static char *b9d2429473cd4b7d967dfcd3a4270597e4uL03ziqKzlamqv[] = {
/* columns rows colors chars-per-pixel */
"64 64 255 2 ",
"   c #5C5A52",
".  c #675848",
"X  c #665A56",
"o  c #755A50",
"O  c #566A55",
"+  c #5D6859",
"@  c #68654D",
"#  c #676758",
"$  c #75695B",
"%  c #69755C",
"&  c #77765C",
"*  c #685672",
"=  c #5B6866",
"-  c #5B776A",
";  c #587970",
":  c #696B64",
">  c #756C66",
",  c #6C7464",
"<  c #64746B",
"1  c #6C736B",
"2  c #687969",
"3  c #747463",
"4  c #797667",
"5  c #73746C",
"6  c #747C6C",
"7  c #7B7B6C",
"8  c #706977",
"9  c #677874",
"0  c #6B7C74",
"q  c #777877",
"w  c #747C74",
"e  c #7B7C74",
"r  c #8F6A58",
"t  c #AF6856",
"y  c #8F746A",
"u  c #847969",
"i  c #857B75",
"p  c #B4756D",
"a  c #D2695A",
"s  c #E56F5C",
"d  c #CE5861",
"f  c #C97368",
"g  c #D77869",
"h  c #D07371",
"j  c #E87A6F",
"k  c #5A8573",
"l  c #6A856E",
"z  c #76846B",
"x  c #698577",
"c  c #6B8B7C",
"v  c #748374",
"b  c #7B8373",
"n  c #768A74",
"m  c #74837B",
"M  c #7B847B",
"N  c #748A7C",
"B  c #7C8B7C",
"V  c #69937B",
"C  c #77937A",
"Z  c #86836A",
"A  c #87877A",
"S  c #84837C",
"D  c #96857C",
"F  c #85937B",
"G  c #A98677",
"H  c #CF8776",
"J  c #D7867A",
"K  c #E98579",
"L  c #F68B7C",
"P  c #6C5799",
"I  c #55738F",
"U  c #696886",
"Y  c #716F8C",
"T  c #77788A",
"R  c #697897",
"E  c #777A98",
"W  c #6D71AC",
"Q  c #7A7AA7",
"!  c #7375D0",
"~  c #777EEA",
"^  c #90748A",
"/  c #847898",
"(  c #AC7698",
")  c #8777B0",
"_  c #D97898",
"`  c #DC7BE3",
"'  c #688884",
"]  c #6C8D84",
"[  c #738B83",
"{  c #7B8B83",
"}  c #7A8988",
"|  c #6A9688",
" . c #749384",
".. c #7B9384",
"X. c #779B83",
"o. c #74938C",
"O. c #7C938B",
"+. c #749B8C",
"@. c #7C9A8C",
"#. c #6B8498",
"$. c #768799",
"%. c #6B9996",
"&. c #779794",
"*. c #7C9C93",
"=. c #76A489",
"-. c #6AA498",
";. c #77A697",
":. c #71AA95",
">. c #6B8AA8",
",. c #7687A5",
"<. c #7588B8",
"1. c #7092B1",
"2. c #7897B6",
"3. c #79AAA6",
"4. c #7BB6A7",
"5. c #77ACB4",
"6. c #598DDA",
"7. c #768AC8",
"8. c #7392CD",
"9. c #75A6C9",
"0. c #738DED",
"q. c #7AA4F2",
"w. c #838C84",
"e. c #888986",
"r. c #8B8C84",
"t. c #938B85",
"y. c #9B8A86",
"u. c #938D89",
"i. c #879788",
"p. c #84948C",
"a. c #8B928C",
"s. c #979788",
"d. c #94948C",
"f. c #9C938D",
"g. c #888994",
"h. c #829C94",
"j. c #889995",
"k. c #8C9B94",
"l. c #9D9692",
"z. c #939B94",
"x. c #979A97",
"c. c #9C9B95",
"v. c #A68C88",
"b. c #B78F8A",
"n. c #A3948D",
"m. c #A9948C",
"M. c #A39592",
"N. c #AC9593",
"B. c #A49A95",
"V. c #AC9B95",
"C. c #A49C9A",
"Z. c #AB9E9A",
"A. c #B69996",
"S. c #B39D9A",
"D. c #86A68B",
"F. c #87A597",
"G. c #97A49B",
"H. c #9CA39B",
"J. c #8DB29A",
"K. c #A6A598",
"L. c #A3A39D",
"P. c #ABA29D",
"I. c #B0AC96",
"U. c #B3A29D",
"Y. c #B9A59D",
"T. c #8988A8",
"R. c #8595A8",
"E. c #938CB0",
"W. c #8998B8",
"Q. c #9998B9",
"!. c #AA90AA",
"~. c #A696B8",
"^. c #88A8A5",
"/. c #98A9A5",
"(. c #88B6A7",
"). c #99B6A9",
"_. c #8DAEB8",
"`. c #A8A7A4",
"'. c #A4ABA4",
"]. c #ACAAA4",
"[. c #B4A4A1",
"{. c #BCA5A3",
"}. c #B3AAA4",
"|. c #B9ABA7",
" X c #BCADAA",
".X c #A7B5AB",
"XX c #B7B3AB",
"oX c #A6B5B5",
"OX c #B9B8B4",
"+X c #D68B84",
"@X c #C79588",
"#X c #D99687",
"$X c #CC8F93",
"%X c #D79894",
"&X c #E78B83",
"*X c #F98B86",
"=X c #E79488",
"-X c #FC948C",
";X c #E99495",
":X c #F89894",
">X c #FD9A95",
",X c #FF9D9A",
"<X c #CCA492",
"1X c #DBA597",
"2X c #E6A597",
"3X c #E6AB91",
"4X c #FCA49B",
"5X c #D38EAF",
"6X c #F991B2",
"7X c #C6ABA9",
"8X c #D5ABA7",
"9X c #C7B1AB",
"0X c #D3B0AF",
"qX c #C8B8B5",
"wX c #D5BAB8",
"eX c #EFACAE",
"rX c #FFA5A3",
"tX c #FFA9A5",
"yX c #FDACA9",
"uX c #FCB2AB",
"iX c #FFB9B6",
"pX c #92C4B6",
"aX c #A9C5B9",
"sX c #D8C2BA",
"dX c #F8C5BD",
"fX c #8C91CF",
"gX c #8899C8",
"hX c #989BC4",
"jX c #A99BC5",
"kX c #B09BCE",
"lX c #8DADCD",
"zX c #97A5C5",
"xX c #A6A6C6",
"cX c #B7A6C9",
"vX c #B1AED6",
"bX c #8F93F0",
"nX c #A89AF4",
"mX c #8EB0EE",
"MX c #AEA9EF",
"NX c #D191D1",
"BX c #EC97C9",
"VX c #CAACD1",
"CX c #FFA6C5",
"ZX c #F9AFD1",
"AX c #D49DFF",
"SX c #FF8FFF",
"DX c #C9B2F3",
"FX c #FDA9F5",
"GX c #AFC6C3",
"HX c #A2CFE6",
"JX c #CDCFC6",
"KX c #D7C6C3",
"LX c #EFCBC9",
"PX c #D6C3E9",
"IX c #F8CEF5",
/* pixels */
"= a.-.|.xXgXW W | M ;.*.w y x.w.mX@XKX8.gXm F k.4Xi zXy.W.[ D yX@.S.V &X$ i 3 D.-Xk x U.`.U.XX .4 Q f [ ;.{.4 O.3 p.3.# *X6XVX_.",
"zXr.e ;.).VX, A xX< tX;.M.B qX7 6 q O.O x $ ^./ s.].3Xb Y.R.y.{ ]  .J.iXfX-X;.M OXa.qX,X].C.O.E U { = 8Xh.z D.l gXy.h.[ b ].O.2X",
"{.w 4.V.!.0.N.$ @ C : p.N.{ v V 2Xq X &.* ;.V.d.t.e.> {.'.w T.c.zXV.4 ;.zXB KXx %Xi *.o.i.# v #X&.gXqXh 8 5 6 ' 6 .X] <.hX1 7Xp.",
"V G W.Y ,XT.Q d.d.Z.w.uX{ cXhX@.1 { g.W R./.a.}.S.rXy <.t.D.h.K ) E n.+.7./.rX..M.E [.5X-X@ M l.a.d.g cXa.L.h.*X+X) :XA.r.v {.c ",
"s.8X$.d.<.i.+X{ s.xX&.! a.mX[.| Y C rXx v ,X#Xi.F e.w &X6 X ! p.9.a.*X|.b E.M.% qXN 7.5 : E., <.r X.4Xz 3.Z.'.T.g M.O.e 5Xd.< w ",
"n qXA.| =.u  X<X< T.nXW W.b N.J.m {.W.qXR.l d.a.P.wXoXw L.KX}.D.N.l G.x.rX].>Xc w.vX>.gXhXW.E O.|.Q.B.C.vXd.LXX h p.aX).j.{.7 tX",
"^.D.x i M i k.X.U.w CXu.4X1X@.w.xXF.f.zXM.' 8.a.9Xg.~.qX&.Z.>.B XXB 0Xu.y.z.{.M.0 A ~.{ 9XH #.U.x.jX5 % > F.S 8Xp.&Xo.f wX#.D.<.",
"A.N.B.a.F.K.;.d.@XiX{  .^.N.>.b ,.x.u.D @.1.2.;.:XF.r >XF.# qX+.l jX#X$X-X*.1 g >XG +.fXw x.D m.K R.C.~.fXP.$ 7X+.XX=X{.J.+.fXx.",
"* w.OXm h.m M 6Xh.r.< b K LXmXeX`.%Xs.$ V f.Q.HXd.=.9Xw.i.] 9.5 i.Q.} U 2 | qXD H.B.> ( = yXl.c r.u w.M.w.B.#.%.& ~.( | 5.-Xr.o.",
"'.: Y.wX4 c.<X5X<.OXL.vX{ <.&.[.u.fX2.FXq.X S.A [ ,Xa.l.#.} A ,.e a L./.{.FXz.w B.U.4Xd.JXqXy kX_.c.x.a  X$.2 $ O.`.f.H.;.h tXV.",
"v Q >XA ).3 8 $ W 1XXXlXqXx.DXv F.N @., G.gXfXxX1Xv :X8.2.T.G.^.0. X>X' 6.H T r.C VX1 ^.T -X6 8XMXb.'.t.=X%.0X4X^ p {.-X'.[ l # ",
"P.Q.c.^.Q.A # [.< Y.`. .gX[ N +.> V.A.2.0XA U.qXv.].v.0 ' 9 ^.5 D f.c.n B.> {.S A.:XB P.[ g [ + k _.;X:XMX> u.u l.} u `.@.2.].ZX",
"oXh SXb s.F.C ~.G.C.V.6 n F.u.w b N {.;.>XC v.W VXc.R.,X&.p.S...J H ;.N @.t.F.A 0X1XV Z.DX+XB.% /.c a.` , c k.% Z.tXd.S.4.Q y.c.",
"sXb pXC.{ T.+.i a.K y.F fXc.p.4 .X# { B 3 J.l.MXp.N D.1.> *X2X5XcX%.[.i.d : +.|.2.f.K V n q tXo.*XpX5Xw.1.p < ).kXT.X 2 ] =Xt.9.",
"5./ 4 }.H.Q '.9 y.! E..Xd.-Xr.qX7 n qX- eXw [ y.e.f -.6XQ % +X| E *X9 f.w x +.V T p.F.] = Z.G.o.S.o.H.{ 3 i R.. MX> hXoX$.w.DXQ.",
"W o.F.k., ] F } u. .> P.].x.4X- v F.z.i.CXcXB % { x h.3.*XE.6 . 0 T.e {.W./.i l., X G H < l.r.*X+.3 o ,.[.4 ' $ J  .G o.T.2 XXLX",
"| D.1 qXC.Q | ..*.x A.r.p.u 7Xn @.m iX2 % B.sX X8.XX] u p.0X4 G.N.: XXB ].2.MX X;X^.;.v.,.OXFXB.3 C fXg.@XA :.A u._.q v a.7X4.Z.",
"4Xo.k $.<X Xp.(.1 f.=.z A.K xXV.5.v 5.&.NXB qXm ] iXd.}.*X9.l ;.#Xu.g tXOXXX@X>.F.q.w.>XR & B.].%X{ u.+.9X' I.U eXt.F.W.}.$Xa.e ",
"j.sX5.;.e l w 2./.% qXN.oX# j KXuX3 mXe.D $ V , ' M 9XT N.[ 1X_ l.M ^.S + ZXX m r.d.E.@.C.w.*Xz.$ M  X,.a z.;.> w.jXo <Xf.} j 7X",
"s., ' i x.f.4.c.@.+.w.).S D 2.nX6Xq w V > : T $ { >X$ c.;.'.SX7Xy.{.E Z.T.SXB.,.H.o.5X] F.h.q J.;.B ^.+ h V.N + P.5 Y %.F.c * h.",
"2 u.g u.c yX6 qX,.B.cXp.-.J P.A.A L.U.<.M mXS 2 #X.X1 n.tXrX=Xg M T.a.S.O.f % 7X/ lX6 z.~.^.$.BXh OXp.CXXXm.U.T w OXZ.b E.%X2.r ",
"h.q Y *X] x XXg.i # 9.eX1X>Xi.`.w _ u.F./.9 MXe t.Q . aX!.J.{ . S fX,Xu.r.f | ' ,.qXt.N < oXMX'.< 2.M.o.v D /.v.6Xh.[ T.] ).h.].",
"W.+ 4XH..X*Xk.m .X@ q B i   tXW.n 1 O.>Xj :X< ~.%.l +.|.*.;.PXJ.Z.6 w L { ~.M & XX/.fXj J eXF.X 4.I ~.[.0Xa.r.{.; B.Y.a.a.a.w v ",
": *X].:X: S p.1 K VX} d d.c 6Xc.9Xx.*XM 3.g {. .nXCXO.2.k V @.aX] u.w DXL.x c.[.-XG , Q.=Xj t.Y -.i h.Q.# K }.S.8X=.1 M bXF.N.i ",
";XW.`.#.V.u qX`.O x.! 3.h O.^.DX@.1 # wXE.i 4Xu.u vX+.e k.kXm %.N c.*X:.a.e.OXY.' h.qXN 1.} >XH.  a.T.w.=.,Xw 5 $.C b.k x._.Y t.",
"W 7.' (.VXl.Z.5 V :X# D 6 iX/.H.'.[.c : +.B < t. XE.vXVXL.i =.wXA.a.Q.7 R W.fXXXDXW.O.4 G.@ fX^.<...Z : ,X1.d.W.u 4 x n O.& +.| ",
"c.B v i 3 7X8XcXu hXj.g B m o.N , c X.:X1.xX=.k.B.$XfX} S.j.~ KXm.N 0 *.9X) F.A ,.o.1Xv k.8.gXf.LX#.&XP.XXb h.^.[ F.S jX+XZ.G.m ",
"4.B i x D.| z ,.H.a.[. .s.@.KXk.% L.T c.oXl e 3.DX{.K v 6 cXi.{ VX=.+ x.S O.&X4.v $.&.2.4 KX9X3 R.} x - w ].6 l.w.r Y.i.uXZ | ^ ",
"H.] -.m +.+.@.MX# W T.K.cXq.v.k.g M ;.Q *.} 4X1.z.M a.N PXa.7XfX9XF 5XL.O.#XcXyXsXMXX.J.J.lXK S +Xr 7XuX7XH.;X{.0 7 5X2XL.wXa.'.",
"h.5 '.:.W W.^.z @ cX. |.4 d.qXR VXk.F 2 x.a.p.#.<Xe.a.`.T.a.t.4.=X' 2XiX0X% B.5 M w P.w.w 8XV.*.>Xy.B S e.4 M <.9Xx.5Xx.zXW V.].",
"& >XhX| p.< [ G.t._.fXpXG.y.P.e.R A U.w.3 | E l `...z.0XyX!.8 =.{ 4 7 N.# ^ 1 ! =Xp y J { I.F.Z.V.z.+ i N.j d.#X: mXa.4.f E.mXo ",
"5 >X5 p.7.. u b.7Xj y.2 q.X.2 D A E.LX@ gXmX4 !.A 1 ,Xr.1 V.+.t.:.v > iXH @XS & 6 3 7 E.[ VX3 nXVXP.[ n.: M ;.r./.] | 3..X{ vXB.",
"M.&X*.7 5 M i v P.h.i M.d.6XxX-X< G.|.o.b A.B.j.e.iXiX-.b ..lXR S.M i mXk.X.b ] C -XG.[ X.+.&XMXU.xXY.VXz.hX:.* jXn.c.XXXX{ Q.NX",
"a.>.f.A.'.GX9X0.5.z ' 5 A.[ k 3.tX> 2 P.~.e.9.x y k.z.BXw '.t.5 ] Q ,./.D 2.7 } F.2.0.<.# /.SX%X6XA l d.O.qX~.o. Xa.O.+ L.=.a.8.",
"; F E ,Xz.; 8XcX8.= m u.).{ } .X=. Xe.Q.gX>X7 8 R n.b }.w.Q.: W.7X.XT rXF.u .X%X| ;.| e 9.z.wX/.e.m .Xh.g oX0 z.| T.8 M /.m *. .",
"+.i.[.# $X4 3 w D.9.E 6 s.4X! N.+.W F.@X0 A.. t L.w r rXC.V. .A x M E.i  Xr.:X[.*X0 B.9 R n.$ 2.kX# i i gXF mX0 d.h.U.f 9Xc.- IX",
";.mX+.W cXc.k.J.3 E.yXm r.Q.cX&XP.M $ > yXD.FX} t.~.;.v.Z.w Z.i e.&.9 o.[.k.S 3 ).p.vXb.XXG.7.k.M h.! z.$ D ,Xp.= y.;.6.8XK 7.4 ",
"r.( %XvX`.qX~.&X@XS.v.x.B w J uXuXX.Q.| : D [.L.x.C.V.P.8.`.} ] 4 S E Y {.7.>XN &.=. .[ p.2.-.@.;.3.: 4Xx Q d.p.c b BXGXj.-Xw., ",
"T.M L F.e.A v.xX! w.1 ,Xv.v e.@ MXA k.^.CXi h.r.D.a.} A.VX{.%Xm.Y ].| k.A.w.k.~.;.N !._.j V.|.kX#X+X, ..} %.K.c x ^.[ , 7.Z ,.ZX",
"p.h.vX(.A.' LX#.3 ,XtXJ tX: V N.T h.wXH k.x.W.=X:.{ F.H.g.$Xz , 9.C.KXL LXsXo.3 kXA m w i.c.Q.iXQ &Xw aXS.w.i : r E v.fXU z.H.- ",
"`.| eX'.r.o.X @X*.g D.cXr.o r.O.9XxX|.l.S zXN ^.XX[ z.eX2X8 i [.j j 4X,XKX&.M { <.q 3 u B +XU m < hXK bXlXw a.XX1.&XQ...1.= VX~.",
"BX`.> /.# vXMXE.!.1 N.D $ # rXl.u.e.7 p.a.& /.#.[.| j.e $Xa./ G.o 0 5 dXVXi.1 {.U.w e.`.,.{ N.t.A.z 4.w.tXr # s z.= >X,./.| f.B.",
"0 m  .{ E < 2.#X9Xd.@.{.u.5X5X: k.> 5 =XZ e.D `.O.L.].G.(.y fXp B.e _ U.4XM.eXs.%XcXK C.7X3 ,.J.,.F...jXHXR L u...v mXT [.S b.3 ",
"&.lXO.,.^.; cXi.m e A.;.@.{ q cXl a L.o.S ,.u.7.O.p 1Xx & O.@.D.*.b L.t cXMX{ m H.X.;.}.C.C.c /.p.,XLX{ B.#X}.n xX4 S.hXz.c.7.w.",
"X.*.1 k.DXd.9.| / w m 1.}.U.).A `.$ +.MXr.E.0XQ.& a.f.uXV.s ).0 ;XV b A 8.0 C.@ bXeXE 6 *.4XC > VX,X% e.$ ! l.W o j.B 6Xw U.iXq.",
"B h.!.v.9 - MXVX2 u +.b.8X7.9.8.@ H.$ 2.b N cX..}.# r.C w.mXK.;.PX[. .qXqXU.{.H.,XZ.; 1 8.c.t.+Xy.c jX[.%.7XL i.B.B (.W L.b 6 >X",
"4 C xXQ 2.;Xu nXl.i.5Xp.z.u T.u.f.f * :.c.yXZ a.B f.H +.9 W.lXj > 3 S.'.GXF.c.w.}.[ h.c.~.9Xq.=XzX2X< j.cX< -Xb }.| * yXF.&X~.$ ",
"# r.N.U.3.X.G s z.a.yXF 6X>.E f.(.:X2.V o.z.) 4.>.3 ).M ).^ @.{ w.K C %.gXa.b 0XC.XXn { 9XY B / _.y ZXz.V.S.Z 0 z.u > bXM i ] & ",
"R <XV.' 7XV.B.l.X.{.p <.Y.,.i.CXy /.v.OXs Y.g i.F.xXbX/.c.R D.f m 6 n r.$.^ 8.(.7 P.#X#.E.y.).5 1 v {._ | ;.c.# 4XeX5.4 W.s ,Xt.",
"b 6X'.M cX8.D a.# } PXiX~.6 C H.qX9XL |.t.w.ZX<.6 M s.}  .E.|.l.,.> -.D.G r.<.2Xx.B.0.S.>XB 9 X _ *X#.| ' #.t.*.o.C.1 t.+.A.L.[.",
"@ }.!.9 u w.E &XQ.HXyXb vX, W.t.R.#.U.h.f C.> '.l Z.5 w j { F k.d.mX0 } 2.-.k.h.J -Xl.oXB s t.+ 5.1.bXi.1 w. .n.6X5X] lXqXZ.x dX",
"G n.' (.M B 0 A W D { | E. .m E t.R.G +.x F.:XcXO.Q.VX> -Xm.e.x.sX%Xu.,.zXM.5X3.2 qX&XP.p.@Xj.E I K =X( w.2 yXE f.zXC.O.U.y.9 7 ",
"jX6 , k./.w 0X6 lXm M :.W t D MXF.l.8X`.p 7.o.a c.x H T.$X5 r...U z.| iXM > @X*.XX.XU w.} lX6 A 1Xl.e.f tXT.y.' } wX9.w.qX1 vX=X",
"N.m +.3.5.,.jX] S.P.[ #.rXu x.c W y.AX|.R.*.B.m p.F.Y g g z.7Xv Q.j 7 : R CX9 :., J 4. X| @.q KXG.O.~ DXnXk.cXVXF.- _.u.<.^ CX7X",
"7Xc ZXw L.2XT mXv $ Q.d.p.;.d f.|.n.e.(.XX].# |  .[.0 jX3.> 4Xt.2.>.d.L ,.%.U.w o a.'.u./ 2XN ;X(.7 OXT H.k., Q.T e.3...B.r.xX].",
"Z fX-.5 [ f.m 9XU.rXu.9XVXvXx.o.dXR g e.p.@XW r.N p.-XY *.> n o.x.i 0.m M 3X< -Xn.4X`.c f M.i d.[.x.L.=.H.@ Y E &.: 0X..L.GXk x ",
"n 4 W }.i.< G.7 B.Q., FX(.m A.E.h c.O.>.E k.T.O.P HX3.b.4 D  .F.{.9XV.SXy.F $XJ | >XS.:.m.rX*X .v S.p $ DXM q o.i.r.@X].5.a.&.`.",
"O.0 7 ,.7XP B q MX&.6 s.qX9.f.IXF.tX&X{.n.XX-.9Xy.y.. B.1 a.6 L K R.%.$ *.N.hXxXk 1 | ;.@X, U.*XG.i A uXh 3.u.w 4.n c <.B.r i.&X",
"@ T L.CXw.5X|.a.n.W.wX|.l.C.1 fXM.v W.| @ ,XCX4 b.{.y.jX$Xc.0  XP ].*XG v i 0XJ S @ P.X.F.a.P.< fX^ e.| x S.rXD c.z.B w I m x.] ",
"E 4Xy.V.o H '.S.G.).9X4.7X#.Q.C : b 7Xc n.}., I j F.^.n.XX5 wX9Xv M.m &.{.x.4.& a = zX..r.$ M w.j.P.3XF.2XaX1.y.@.MX#X9X,Xm W.n ",
"E V.V.V z.w.$ !.}.$ M.3 g X [.E ~.=X1XJ.e a.>X3 C.y 4 F.Y.8Xm p.1.> 1.6Xe.{.V.|.n.(.5.C FXi.P.2.1 V.z u { B.| > CXIX9 F ..L T.{ ",
"@ p.6X> B.aX> {.V R c 4Xd.E 7 m } 2.d.E.l I j.H.`.i C.S zX{.qXS.4XI.k.7XZ.2X9.{.|.F.l.$ ;./.MX7.H.>XT.c 9Xk e.B | 0.' e.wX#XkXY.",
"a.h.:  .@Xs.! h m xX2 &.@ qXoXx.Y./.4 rX#XM e 8.MXl @XV.h.D.u $ o.D E {.m fXW.>.Y DXo.G %.1X5 U m x.L.> S 3.Y.7XJ.s q Q.qX6 # a.",
"b...E._ 0 , ). X< V d.eXD.w E %Xe.>X.XN.;XpX< 8X`.z.| S.G.W.C.XXj .XS Z.(.m 3 ;.`.f.x.rX2.&.g *.o.k.4.K.0.i c.0XS.fX: m K m { c "
};
