/* XPM */
static char *baaf764e4d524745b6021fbc2070d7d8NYIi0O4ueYpMA8Tr[] = {
/* columns rows colors chars-per-pixel */
"64 64 201 2 ",
"   c #010000",
".  c #0A0000",
"X  c #020A00",
"o  c #090B00",
"O  c #0C0C0C",
"+  c #150000",
"@  c #1B0000",
"#  c #150B00",
"$  c #1B0A00",
"%  c #120E0E",
"&  c #1B0B0B",
"*  c #0E160E",
"=  c #0E190E",
"-  c #14140E",
";  c #131313",
":  c #1B1616",
">  c #161D16",
",  c #1E1E16",
"<  c #1C1C1C",
"1  c #220000",
"2  c #2A0000",
"3  c #220B00",
"4  c #2D0900",
"5  c #240B0B",
"6  c #2B0C0C",
"7  c #340000",
"8  c #3B0000",
"9  c #370B00",
"0  c #390A00",
"q  c #310808",
"w  c #3B0808",
"e  c #261208",
"r  c #2D1A0E",
"t  c #3E1208",
"y  c #321A0E",
"u  c #241616",
"i  c #2C1616",
"p  c #231C1C",
"a  c #281C1C",
"s  c #351616",
"d  c #162016",
"f  c #1E2016",
"g  c #1C251C",
"h  c #1C281C",
"j  c #23251C",
"k  c #24281C",
"l  c #242424",
"z  c #2B2424",
"x  c #242D24",
"c  c #2A2D24",
"v  c #2C2B2B",
"b  c #302424",
"n  c #3B2424",
"m  c #322C2B",
"M  c #382C2C",
"N  c #243024",
"B  c #2A3024",
"V  c #2C352C",
"C  c #2C382C",
"Z  c #33342B",
"A  c #333232",
"S  c #3A3232",
"D  c #333B32",
"F  c #3A3B32",
"G  c #3B3A3A",
"H  c #430000",
"J  c #4D0000",
"K  c #4D0B00",
"L  c #450D0D",
"P  c #4B0E0E",
"I  c #520000",
"U  c #580000",
"Y  c #540808",
"T  c #5B0D0D",
"R  c #43180E",
"E  c #551308",
"W  c #5B3500",
"Q  c #5E3A00",
"!  c #472016",
"~  c #662E00",
"^  c #6A2900",
"/  c #653400",
"(  c #6C3500",
")  c #613C00",
"_  c #693B00",
"`  c #6A370E",
"'  c #7D3200",
"]  c #753B00",
"[  c #7B3A00",
"{  c #7D3D0E",
"}  c #462424",
"|  c #472D24",
" . c #5A2424",
".. c #423A3A",
"X. c #7D2424",
"o. c #3A443A",
"O. c #6D4100",
"+. c #7F4100",
"@. c #7C4B00",
"#. c #73430C",
"$. c #7D470E",
"%. c #784C08",
"&. c #625D00",
"*. c #6E5B00",
"=. c #745400",
"-. c #7A5600",
";. c #72550E",
":. c #70580E",
">. c #694816",
",. c #7B4D16",
"<. c #7B5816",
"1. c #666400",
"2. c #6A6200",
"3. c #726300",
"4. c #7E6100",
"5. c #7A6A00",
"6. c #79650E",
"7. c #766A08",
"8. c #7D750E",
"9. c #41443A",
"0. c #912E00",
"q. c #863500",
"w. c #8D3200",
"e. c #833B00",
"r. c #8B3900",
"t. c #953700",
"y. c #9B3700",
"u. c #943A00",
"i. c #9C3C00",
"p. c #A43700",
"a. c #AB3700",
"s. c #A13D00",
"d. c #854200",
"f. c #8D4300",
"g. c #8B4B00",
"h. c #854708",
"j. c #8C460E",
"k. c #884E0E",
"l. c #944300",
"z. c #914700",
"x. c #9A4300",
"c. c #934A00",
"v. c #9A4A00",
"b. c #9C490C",
"n. c #855100",
"m. c #8B5400",
"M. c #835E00",
"N. c #8C5D00",
"B. c #835008",
"V. c #8F510E",
"C. c #925300",
"Z. c #995400",
"A. c #935B00",
"S. c #9C5A00",
"D. c #93550E",
"F. c #9A540A",
"G. c #875216",
"H. c #9B5116",
"J. c #A34400",
"K. c #A24C00",
"L. c #A7490B",
"P. c #A14C0D",
"I. c #AA5600",
"U. c #A35B00",
"Y. c #AE5D00",
"T. c #A35708",
"R. c #AE570E",
"E. c #A05B08",
"W. c #AE5D08",
"Q. c #BD5200",
"!. c #B45D00",
"~. c #AC4B16",
"^. c #B14F16",
"/. c #A65816",
"(. c #8C6200",
"). c #89660E",
"_. c #946300",
"`. c #9C6400",
"'. c #956900",
"]. c #90610E",
"[. c #946D0E",
"{. c #9F6116",
"}. c #A36200",
"|. c #A96200",
" X c #A26B08",
".X c #B16100",
"XX c #BA650B",
"oX c #B46A0E",
"OX c #BD6C0E",
"+X c #A8730E",
"@X c #B4710E",
"#X c #835624",
"$X c #965D24",
"%X c #AC5824",
"&X c #B36624",
"*X c #CA7D16",
"=X c #D06124",
"-X c #C17624",
";X c #B48016",
":X c #898C24",
">X c #B08E24",
/* pixels */
"A O p O < F   O ; l z ; ; ; % % l S c < l : : <  .D C S G o.G Q A & l A o.G ../ ; P v ; c l > : ; O O v M v z     j ; ; F O ; G ",
"; z O p l ; ; : l ; O D ..A z     p A l   ; ; z o.G ; c v @ l e.v < v b.v O O g p     % ; ; A v S ; k G S z z ; z l j ] l A O O ",
"% l D c O ; ; v ; F A 3.; l z x S O : Y S l S F z b ; g l g.C i % % p ; l ; j M o.c ; : : ; A O O O O       O A o l ; o   l ; Q.",
"; z ; < G l % < p   l O l   d O G Y.z l < / ; A ; f.o.A S < < ; % O A O O S     O ; ; ; ; G ; l l g ;   < ; < A ; O O % l O O   ",
"  z l ; ; p G ; :XO l v 5 < e.D &   S p @ < z % c 9 O ; A ; c D +.l < p < f.< < l S ; ..; ; c 4 z   A O ; ; ; ; ; + v < l S < D ",
"l z P.A ; % ; l O       l N.l ! v #.l v ; G v l G < z l c ; ; ; ; O     I O l l l l l l l C A G A * A G G A < @ < v ; v 5 O O l ",
"l l B < o o ; 1.v 5 l j S f.G G.v 7 v A G ; : O l S l g l l l G v A A A A G B l < m < < z     .XO S @ l l ; l l z A A ; A A r.G ",
"5 v v I.v @ < v G ].@ z.l s ..G D A p l 2 A A ... A < 2.< < O   N p.}.A l ..: c l l F A G A A A G G A G < < O     <   O A !.G s ",
"7 G G A l < v .Xl < . l G 5 v T.l o.O S < ; <.A S ( O G I.p l < D       O l l v D S l l A S D c A p G l G A c g < < O O   . U.l ",
"< v l @ l o.; 5 v u.D   v &Xv @ v   o.z . O z l l z l l z.l S l A A A S   G G m < l % S 1   A O l v l l l k.l   % A A < A G l < ",
"*XX m W < G @ v T G v @ ; l l A S A A A v A < * v A G v < A <   G b l l l l g l + m l A A A Q G G G A l < < l O ; s.O l l A l < ",
"  l G   K.v @ c O.v p v S G b < O .   D o $ z   l l l % A z A A S G   G l p O v h.O S l O m l A l l l < G < A A A X G @ G G < @ ",
"l N.z 3 G u.l + XXl < G l l A A A A F G G G A z A < < O     % < l z l l < 1 S A < S A S G o.G A A O v 1.G + G a.z 5 6 %.l 8 G A ",
"l A A A F X G G A l l < < O o l O l l c l   l l l v l A A S ; G G A A z.< <   D l l l ; z l l l G l z 5 v < l l < h v O c A v O ",
"= . O D D c l l l O F < l 8 + F G G   A j < c < O . @ ..g O G l l l A C A A A A S.% 1   p o.l v l.J z p O l z G l l l m G + l S ",
"A D S ( G A 7 l O G l p       l G   v v l ).A j j G D J 2 G A g |.v @ G C G 7 G A m P z [ l S v A A A S l G G . < S p < l x o V ",
"< o ; p S 1   %   & l F G l c l B A A F A X $ w l A v < p p O     A G l l < l c l A A A S   A A G S l p v ; A + < `   7 ..g.v + ",
"x < S A A D A S O G D c < < < l g   S O x l / % S B l S ; A S < V.l G < A p 5 < o O G A l @ G / l + z x.G @ v.z l 7 v ..A O ..< ",
"A z O     < c z c A p X l M A F D M S G   < A @ < < j F .   O z A z l l z l S ; 7 m 3.z + v =Xo.+ G d.c A   z < S l G l l v ;   ",
"+ S D A l G z g A p < < g O G v z v l z }.l c v S A J.D A A l 9.E < < v M m r.< H G G p n G l G S A l A S S A c G S A < < < H l ",
"D A ..S l z v v x l S A A D p S l G D A p < G h z A   A o.l z l 7 O A $ @ ; A ; @ v T p A . [ v F.v     O z ..g.l F : l X x A g.",
"A F G G < A l v l l O     G G l z l l l z S A A S S S '.v < 7 i.A l Z f.< A S z @ z l   z l & F A S A x G & h < < A l p <   G H ",
"z o.G { l c l A A S D A S G O D c p   < g O l +XG $ l w.g @ o.G : + A ] A l A G < O p < < G O     l z A z C X ; l A A S S A A H ",
"..D A < < < g A 9.V.A A l z v l c l m A < r ..S l l C < m X ^ e.G l l O h l z l < ; o.S A l S A p < G S A J.  l l O   < O k l _ ",
"< I ; A l @ F G l A b.; G }.g O     % x l ; : z S 6 S A A l 5 c G G   z p < l g O ;   l.F l z l A l l S D A M   z @ m %Xv G v x.",
"V + 9.  % c o.z l z z l 3 A S l S D v G m 7 n.6.< g O z x.O ; l z l l A l l A A l A S   l D A c z   c G + G w.G 6 m F.l 1 l G ; ",
"A l A O A f D ; O l O g G H   ;   ..G l A 6 _ S A p D c S   G S A p < < g O G   O c O % % F x v v N ; c.n.@ v   c w p < O p z S ",
"  % c z S l z x l F A l D < o.g A D A j j < &Xc ; A O < ;   O l c 1 S O A D l S.G + #.,.l @ N K.D 2 G e.l ....D l < < S ; A S v ",
"O z v D A A < z z O A L l S l S l c l   F z D.D ..D G ... A < v H C &.... G   l } v G c 5 < p N x.A D G G D l p p < p O     z z ",
"l c g l   l F A S D G p @ p ; A A < p A O o z G x l B A z ; S . S : ; ; l v % O G v < < c l p   O N l ; l p   l + A A 2 O S % G ",
"F A j ; % S S G A % A l c A o.OXl U.; 6 D y.c G l U.l 1 G v   O o A % A l z l z N A l e.< D A b G r.D A ; < A =.g .   S c l z A ",
"l ; F F   A D A F G l D A z J m 3.G @ G ( o.L O T.v l ; z ; S S   D G + l A ; G < l ; <   O c O D S l c ; S A < p   S A B.D / % ",
"8 : (...G A G l l c l p G z M A S @ S G.G G G S j < S.< O   X % S l _.l v C l D < S A #.D < c V & ..A v 0 $ S l @ o.l . l c x l ",
"@ A ..A A D   Z S @ i.A O < % ; j % l z z l G l l   A S A A O G G G 7 ; < p ; O J X.p G l / A A < O z @ v l A   v % @ A > < < g ",
"u v   % l , z l l l z D O S A S < G G S S x < p < % o   l l z l l z l l o P.< A A ; A : ; % % G t.v l v :.G O l e.v S c }.F A A ",
"A S c G % 9 S k < < l v o   (.l l c l A l % l A U.< S ; G G G F j A < p G 9.@ G $ l G v A ; y G ^.: G A D z G o.A j z v O O X   ",
"% x z S z z l l F A S H A v K ..G S   < < < % l G % p l B l l p < 8 A |.v @ c S l t l S l @ < S o @ A   l A g ; l l A A A o A z ",
"..H.g.S G < F O G o   l l z c v z l l 7   c A S F A [ G + j < . < z D   % b T Z 4.O $ l S ; i ; p c ..9.<   p z p l O l C G c $ ",
"c O z ; z D S S A S D l ..G S O F : A O o G & % z z z z l / F A S N.z S v $.v & Z z v # ; b.  % l l A l i.l l S A A   l l G S G ",
"S g A /.< [   o.F.% g c l z l z A p A A S O G m Y   % A < l ] g 7 G l < | v < ; A C   S A S ; G ..G 2 j   G l O o   % l G c c z ",
"S A A l V l < 0 G * z z c l x z O `.A S S S D % < l z g < j m % S   S.l v   O z l [.c A S l S D g M >Xp F g ' v m G A ..G l   D ",
"p z O P.A.D S A c G p ..  g 1 G p l A.A = z ; l D c z z x A S m D @ G G v < < z p < O l   ..z l 4.v l l O . S : Z.z l G ..N l g ",
"G g p A X   . z r.c A c J.z x A l l S D G l G O O o.l p z X l o z z   j c   z N l , _.z # g l v   C g A @ < j.; D G S c l l l < ",
"l O D S v D G M ..S D < g a % X z = G l c l x z z x XXl c % S G < ..G g < v p % @Xv l A ( A i ; p z $ ; v v 8 c c.M G ..v e p < ",
"% Z   = l l x v ..A l < v l S S D G < ..; 9.< g x.v x G z z O c % p z l G G M.A + O G C L O n.A j m % X ; $ l z v l z g z x A l ",
"C.S l . l ..S   c g p l X   * z g.c A c l c z A   S S G H C > D O *.i.. + l 2 o.8 z ; v + % l l A   S G O G o...% g < l < % X 5 ",
"G G z @ l j O l c A D S S D G o.l G K.G g x G S OXl < A A l ;.z l   @ :X@.l # G x l z g < g   A <   * z z ; F v l z x S z G A S ",
"@ l ..D l S l S p l ] A z c < l c z z N A D S z c b.+ A   C 1 z A l : ..j...  < W.m z z c   D A S c G v l S : < < < b.A A A z G ",
". A ~ p G 5 c.D a l ; p z 1 o.  l z < c ; l b S A ( O S S   S A p p h A $ D G o.& O z z D z z   < D ; A S S @ ..G p O G p G F G ",
"< ..2 v L.S A l =.: R M G S S A.l A j     p p . g C.% ..z l c z l z D D o.A S S F G A p p l.S c G   X l < + l l  X. @ : 0.@ x z ",
"m.l 5 l O ..z < O . < X c < v z ; b l O >.D   l D c o...A   < g v A     X & l z z p c G N S D v A < z # D A M 7 C z.G A l l O $ ",
"z   l O l   S M A A S M j G < . x g p ( <   G % l b + c O c   S v S C.S S S ..A p p g U < 8.< $ l [ l O S.c l A c z S O S S o.@ ",
"A p < < < O .     O l z z l l l p < A < < S S X . A p < O < O g   X S l z z c c   + g p < S A g C 6 v A m   M & G O @   l < z z ",
"x l S S A A S l S @.l < p p < ; O O >   O . z O l % l ; S   a A A j ; b.% S p v O J z +Xc 1 G P.v n * g.l o.  S 5.G G l ..A p p ",
"< < j c   A < < z S l D + A S A A c S S G o A p l < < O . @ Z.D l m oXl z A G z G l ..S g.C ..G p A g D @ .   X v X g l S b l z ",
"S A A A F S @.G A p ) v A < f ,...z l l z l l D z S O A c.z ; v l F S ; F % v...1 G z ; z z < l l ..6 D S S 3   v ..G l z . p O ",
"L z v v   ; ~.v + v @.x 7 @ % G C J ; l l z A A _ O g.A A G A p < < o.< . l g % l z   l l l z A A S < S A A ; l p 2 < p p `.G @ ",
"G ' S } l 8 l G ; l.S _ S o G G A . : O p ; . ..  % g z l l F A z A A A $XS A G A A p < S < < * D   l <   l l z l u I ; X l 1 l ",
") m G m x.M + S % G @ % ; z l z l < p A O S A p A G p A p o.< A A l     % l z S l z l p A S l A l A c   A p < O v S ..A G p G K.",
"..% z G   8 S S A z l ..A p z < S p < p   G % l z A z v % z A x S v S A O ; - p < A p {.    A % j o -XA @ l z ; @ v v.z  .5 ) O ",
"a < q p l p l   % G z l ; z l < A S S A S A l G ;XG l C.c < . G . % l z G O l   z A : R.S -.l l m #X< G v A G D G l ..l S i l l ",
"l z g S S A G z ....A   < l c < p D M %   z ; z % l z A S D % S A ....A p X p G O g A + G ( O 1 v E.z O l x.m 5 S A ..G l p D p ",
"< < A c l % l z l z l l z < S S c S A < . A A g p S |..   . l l z x m l A S ; f.m 5 z z S 5 v + < p ..< .   v % l z G z H m % A ",
"A S A S @ S O A p M < S A . ; O < z N l f.l p O A q.l l ) A l v A p < p m < ..F P @ G   v i z d.7.A < S A S @   G A p < p l < i."
};
