/* XPM */
static char *_16dbb91ee5c42fed333a34fa0d92ebbflxDvnObW8PWtr06[] = {
/* columns rows colors chars-per-pixel */
"64 64 202 2 ",
"   c #010000",
".  c #0A0000",
"X  c #020A00",
"o  c #090B00",
"O  c #0C0C0C",
"+  c #150000",
"@  c #1B0000",
"#  c #150B00",
"$  c #1B0A00",
"%  c #120E0E",
"&  c #1B0B0B",
"*  c #0E160E",
"=  c #0E190E",
"-  c #14140E",
";  c #131313",
":  c #1B1616",
">  c #161D16",
",  c #1E1E16",
"<  c #1C1C1C",
"1  c #220000",
"2  c #2A0000",
"3  c #220B00",
"4  c #2D0900",
"5  c #240B0B",
"6  c #2B0C0C",
"7  c #340000",
"8  c #3B0000",
"9  c #370B00",
"0  c #390A00",
"q  c #310808",
"w  c #3B0808",
"e  c #261208",
"r  c #2D1A0E",
"t  c #3E1208",
"y  c #321A0E",
"u  c #241616",
"i  c #2C1616",
"p  c #231C1C",
"a  c #281C1C",
"s  c #351616",
"d  c #162016",
"f  c #1E2016",
"g  c #1C251C",
"h  c #1C281C",
"j  c #23251C",
"k  c #24281C",
"l  c #242424",
"z  c #2B2424",
"x  c #242D24",
"c  c #2A2D24",
"v  c #2C2B2B",
"b  c #302424",
"n  c #3B2424",
"m  c #322C2B",
"M  c #382C2C",
"N  c #243024",
"B  c #2A3024",
"V  c #2C352C",
"C  c #2C382C",
"Z  c #33342B",
"A  c #333232",
"S  c #3A3232",
"D  c #333B32",
"F  c #3A3B32",
"G  c #3B3A3A",
"H  c #430000",
"J  c #4D0000",
"K  c #4D0B00",
"L  c #450D0D",
"P  c #4B0E0E",
"I  c #520000",
"U  c #580000",
"Y  c #540808",
"T  c #5B0D0D",
"R  c #43180E",
"E  c #551308",
"W  c #5B3500",
"Q  c #5E3A00",
"!  c #472016",
"~  c #662E00",
"^  c #6A2900",
"/  c #653400",
"(  c #6C3500",
")  c #613C00",
"_  c #693B00",
"`  c #6A370E",
"'  c #7D3200",
"]  c #753B00",
"[  c #7B3A00",
"{  c #7D3D0E",
"}  c #462424",
"|  c #472D24",
" . c #5A2424",
".. c #423A3A",
"X. c #7D2424",
"o. c #3A443A",
"O. c #6D4100",
"+. c #7F4100",
"@. c #7C4B00",
"#. c #73430C",
"$. c #7D470E",
"%. c #784C08",
"&. c #625D00",
"*. c #6E5B00",
"=. c #745400",
"-. c #7A5600",
";. c #72550E",
":. c #70580E",
">. c #694816",
",. c #7B4D16",
"<. c #7B5816",
"1. c #666400",
"2. c #6A6200",
"3. c #726300",
"4. c #7E6100",
"5. c #7A6A00",
"6. c #79650E",
"7. c #766A08",
"8. c #7D750E",
"9. c #41443A",
"0. c #912E00",
"q. c #863500",
"w. c #8D3200",
"e. c #833B00",
"r. c #8B3900",
"t. c #953700",
"y. c #9B3700",
"u. c #943A00",
"i. c #9C3C00",
"p. c #A43700",
"a. c #AB3700",
"s. c #A13D00",
"d. c #854200",
"f. c #8D4300",
"g. c #8B4B00",
"h. c #854708",
"j. c #8C460E",
"k. c #884E0E",
"l. c #934500",
"z. c #9A4300",
"x. c #934A00",
"c. c #9A4A00",
"v. c #9C490C",
"b. c #855100",
"n. c #8B5400",
"m. c #835E00",
"M. c #8C5D00",
"N. c #835008",
"B. c #8F510E",
"V. c #925300",
"C. c #995400",
"Z. c #935B00",
"A. c #9C5A00",
"S. c #93550E",
"D. c #9A540A",
"F. c #875216",
"G. c #9B5116",
"H. c #A34400",
"J. c #A24C00",
"K. c #A7490B",
"L. c #A14C0D",
"P. c #AA5600",
"I. c #A35B00",
"U. c #AE5D00",
"Y. c #A35708",
"T. c #AE570E",
"R. c #A05B08",
"E. c #AE5D08",
"W. c #BD5200",
"Q. c #B45D00",
"!. c #AC4B16",
"~. c #B14F16",
"^. c #A65816",
"/. c #8C6200",
"(. c #806008",
"). c #89660E",
"_. c #946300",
"`. c #9C6400",
"'. c #956900",
"]. c #90610E",
"[. c #946D0E",
"{. c #9F6116",
"}. c #A26200",
"|. c #A46300",
" X c #A96200",
".X c #A26B08",
"XX c #B16100",
"oX c #BA650B",
"OX c #B46A0E",
"+X c #BD6C0E",
"@X c #A8730E",
"#X c #B4710E",
"$X c #835624",
"%X c #965D24",
"&X c #AC5824",
"*X c #B36624",
"=X c #CA7D16",
"-X c #D06124",
";X c #C17624",
":X c #B48016",
">X c #898C24",
",X c #B08E24",
/* pixels */
"O O O O       O ; ; % % O O ; ; ; % % % ; : : ; O O o V.G @ G Q G & l v.l @ l / ; 7 v c.% % : : ; O O O o O       O ; ; ; ; O O ",
"; ; ; ; % ; ; : : ; o o O o O       O % ; ; ; ; l H ; _.v @ l e.v 5 v v.v o O O       O % % % % ; ; % % % % % % ; : : ; O O O o ",
"O     . o O ; ; ; ; ; ; % ; % ; ; % : Y v [.v 2 v ~ G 7 G g.G i ; ; ; ; O ; ; ; ; ; % : : ; O O O O O       O ; ; ; ; ; ; ; ; ; ",
"; ; ; ; p < ; O O O O O     . O G U.l 6 l / ; 2 ; f.l + ; < < ; O O O O o       O ; ; ; ; ; ; ; ; ; ; ; ; ; < < ; O O O O O     ",
"  O ; ; ; : ; ; ; ; I.v 5 l e.m & v B.v @ v f.G     O ; ; ; ; ; ; ; < < < < < < l l < ; ; ; ; O       O ; ; ; ; ; ; ; < < < < < ",
"< z l < % ; ; ; O     I G M.v n v #.l 7 ; g.v < < < z l < ; ; ; ; O       O l l l l l l l A A A A A A G G A < < < < O       O l ",
"l l z l l H ; 1.v 5 l i.m & v F.v 7 v e.G +   O l l l z l l l A A A A A A G G A < < < < O       O l l l l l l l A A A A A A G G ",
"A < v P.v @ G v.G @ G l.v s l l l A S A A A A ..G A < < p < O       O l l l l l l l A A A A A A G G A < < < < O       O l Q.v s ",
"G G G A j < v XXG 2 G _ G 5 v Y.l @ l S A A A A S G G G A p < < < O     O l l l l l l l A A A A A A G G G A < < < < O     O l l ",
"c l l l l Z.; 5 v u.c @ v *Xv @ v < < O .   O l l z l l l l S A A A A S G G G A < < < < O     O l l l l l l l A A A A A A G G G ",
"=XZ . v l.G @ G x.G 5 m l l l l S A A A A S G G G A p < < < O     O l l z l l l l S A A A A A G G G A < < < < O     O l }.v i l ",
"] l $ ; J.v @ c O.v q v j < < < O .   O l l z l l l l S A A A A S G G G A p < < < O .   O l l l l l l l A A A A A Z.v @ v G.v @ ",
"v M.G 3 G u.G l c l l l l F A A A A F G G G A p < < < O     O l l z l l l l S A A A A S G G G A < H v 1.G + G a.G 5 v %.l 8 l A ",
"A A A A F G G G A k < < < O o   O l l c l l l l S A A A A S G G G A p < < < O .   O l l z l l l l }.; 5 v f.l + v *Xv @ v < < O ",
"X   O l l c l l l l F A A D A F G G G A k < < < O .   O l l z l l l l S A A A A A.v 1 v ^.m @ v l.G + G O l l l l l l l A A A A ",
"A F G G G A j < < < O X   O l l B l l l l F A A A A F G G G A p |.v @ G #.G 7 G g.m i l [ l S A A A A S G G G A < < < < O     O ",
"v J v A.V 1     O x l z l l x l S A A F A S G G F A p < < p O     O z l z l l z l A A A S A A G G S A < v W.v + G ` G 7 l g.v + ",
"x l S A A D A S G G D A p < < g O     O x l z l l B l S A A S A S G G S A p < < p O G oXG @ l / v + z z.; @ ; / l 7 v L.A A < < ",
"< g O     O x l z l l x l S A A D A S G G D A p < < j O .   O z l z l l z l S ; P m 3.z + v -Xv + v d.m O     O l l l l l l l A ",
"A S D A S G G D A p < < g O .   O N l z l l x l S A A D A S G G E v 2.v @ m r...H G @.l n l l z l A A A S A A G G S A < < < < O ",
"o   % x l z l l x l S A A D A S G G D A p < < h O     O x l z l l c P.: @ ; Q l @ v T.m 5 m [ v 8 G     O z l l l l z l A A A A ",
"A F G G D A p < p g O     O N l z l l x l S A A D A S '.v e v i.v @ Z f...+ G z l z l l z l S A A S A S G G S A < < < p O     O ",
"x l c l l x l F A S D A S G G D A p < < g O . @XG $ l w.v @ x @.: + ; y.A S G G F A p < < p O     O z l z l l z l A A A S A A G ",
"..D A k < p g O X   % x l z l l x J : 5.; r l ( v 7 V {.m @ v e.O     O x l z l l c l S A A S A S G G S A p < < p O     O z l l ",
"l I ; Z.V @ F G ..D A j < p g O     % x l z l l x l S A A D A S G G D A p < < g O     O c l z l l z l S A A m XXz @ v &Xv @ v z.",
"V + 9.  % x l c l z x l F A S D A F G G D A p < < g O     O x l z l l x l S A A D A S G G F A p < < A.G + G w...6 m D.l 1 l r.; ",
"5 C A F G G D A j < < g O o   % x l c l z x l S A S D A S G G D A p < < g O .   O x l A.v @ x W : @ ; x.l @ v k.m w p < < p O   ",
"  % x l B l z x l F A S D A F G G D A k < < h O X   % x l z l l x l S A A D l A.v + V ,.m @ v J.G 2 G e.c l z l l z l S A A S A ",
"F G G D A k < p g O o   % x l c l z x l F A S D A F G ..D A p v H V &.... G s.l } v N.x 2 : b.; y A S G G D A p < < p O     O z ",
"l c l z x l F A S D A F G G D A k < p g O X   % x l B l z x I.f + : ] l @ v D.V & m < < h O .   O N l z l l x l S A A F A S G G ",
"D A j < p h O X   % x l c l l x l I.; 6 V ] c + m ;Xv 1 v x.V O X   % x l z l z N l S A A D A S G G D A p < < g O .   O c l z l ",
"l x l F A S D A F G G D A k J m 3.G @ G ( o.L V Y.l $ l r.; S D A F G G D A k < < g O     O x l z l l x l S A A D A S G G D A p ",
"8 m /...9   % l l c l z l z F A S A S F G G G S k < p < O X   % l l c l z l l F A S A A F v +XV & Z / v 0 G S.G @ o.l c l l x l ",
"F A S A S F G ..G S j < p < % X   % l z c l z l l F A S A S F G G G A k < p < O X OXG $ l / v 7 x l., @ ; _ l @ v v.o.A j < < g ",
"% X   % l z c l l l l F A S A S F G G G S j < p < % X   % l z c l z l l F A S A A c H v >Xv $ v t.v + 9.:.G 4 l e.v l x l F A A ",
"A S F G G G S k < < < % o   % l l c l z l l F A S A S F G G G S k < < < J 9.].G $ l ( v 7 l z.f + : A A F G G o.A j < < g O X   ",
"O l z c b z l l F A S A S F G ..G S k < < < % X   % l l B l l l l F A  Xv @ c _ v t v g.v @ v q.9.@ G C.l c l z l l F A A D A F ",
"..G G S j p p < % o   % l z c l z l l F A S A S F G G G S k < p < % X   % G T Z (.z $ l ) ; P v V.c @ v G A j < p < O X   O x l ",
"x z l l z D S S A S F ..G G S j < p < % X   & l z B l l l z F A S M.z 3 v $.v & Z H.m # ..v.  % l l c l z l l F A S A A F G G G ",
"S g p p < % X   % l z x z z l z F S S A S F G m Y v /.v @ v ] 9.7 G b.l | v h.l + F A S A S F G ..G S j < < < O X   % l l c l z ",
"m :XV 1 V l.G 0   * z z x l x z z x A D S S D G o...S g < k p % X   % l l x l z l l x A S A S D G m ,Xm 3 v ' v @ o.L...@ z i.l ",
"x z z x A D S S D G o...S g < g p % X   = z z x l x z z x A F S S D G 9.G S g < p < % X   ..H l 4.v 1 l ( d 2 : C.z $ G ..G S g ",
"< g p % X   * z z x l x z z x A D S S D G o...S g < g p % X   = z z N l c z z N A , _.z # v { v 5 C l.m @ G j.G 8 G l x l z l z ",
"x A D S S D G o...S g < g a % X   = z l x l x z z x A D S S D G o...S g < g p % #XG + ..( c i z H.z $ ; ^ v 8 x x.m G S g < p < ",
"% X   = z l x l x z l x A D S S D G o...S g < g p % X   * z z x l x z l K ; m.m + x ( V L m b.v j p % X   % l z x l z l z x A S ",
"S S D G o...S g < g p % X   * z z x l x z z N A D S S D H V >Xv $ v i.m + o.;.o.8 z +.v + z l x A D S S D G 9...S g < p < % X   ",
"* b z N l x z l x A D S S D G o...S g < g p % o.+Xo.1 l _ v 2 z g.> @ > @.l # G o...S g < g p % X   * z z N l x z z x A F A S D ",
"G o...S g < g p % X   * z z x l x z z N A D S z `.v + m ,.V 1 V V.G $ G j...L x l x z z x A D S S D G o...S g < g p % X   - z l ",
"S A b }.C 5 v F.v $ m z...1 o.z.l z z x z l b S D S A S S o...A p p h p O     X & l z z x z l z S D S A S S o...A p p g p G 8 G ",
"6...5 v K.x @ l =.: R m A S S o...A p < g p O .   X % l z l x z l z S D S A S S o...A p p g p O .   X % l z z x .Xl @ : 0.m 6 z ",
"n.v 5 v p < g < O .   X & l z z x b l z S D S A S S o...A p < g a O     X & l z z x z l z S D S A  Xz # m %Xm 7 V l.G @ G k...l ",
"z l l l l z S A A A S S G G A p < g p O     X % l b l x b l z S D S A S S o...A p p g U G 8.G $ ..[ v  .x L.l + S D S A S S o...",
"A p < < < O .     O l z z l l l z S A A A S S o.G A p < g p O .   X & l z z x oXl + : ) M 6 z J.V 6 v <.m 9 m f..   X % l b z N ",
"l l z S A A A S S G G A p p < < O       O l z z l l l z S A A A S S o...A a p g M J ..@Xo.1 G ) v ! z g.z S D S A S S o...A p p ",
"< < O       O l z l l l l z S A A A S S G G A p < < < O .     O l m X.l 7.l @ : r.v P z g.C ..A p < g p O .   X % l z l x b l z ",
"S A A A S S G G A p p < < O .     O l z z l l l z S A A T z 3.v 6 v >.v 7 v c...1 G i.G z z l l l z S D S A S S o...A p p g p O ",
"L z *.v 5 v !.v + v @...7 G % l z l l l l z A A S A S A G G A p < < p < .     % l z l l l l z A A S A S A G ..A p < < p g `.G @ ",
"G ' m } m D.l 2 ; l.S A S A G G A p < < p < .     % l z l l z l z A A S A S A G G A p < < < < .     % l b l l z l u I ; V.l 1 l ",
") m w m z.m + G [ G @ % l z l z l l z A S S A S A G G A p < < < <       % l z l l l l z A A S A S A G ..A p v |.v + ..#.G @ G J.",
"v u z [ : 8 S S A S A ..G A p < p p <     . % l z l z l l z A S S A S A ..G A p < < p <       % l v I.v @ l / ; @ v c.z 1 v L.A ",
"a < p p < .   . % l z l z z l z A S S A S A ..G A p < p < < .   . % l z l z l l z A : T l -.l + m $Xm 7 v H.G @ G L.G l b l l l ",
"l z A S S A S A ....A p < p p < .   . % l z l z l l z A S S A S A ....A p < p J G =.G + G ( m  .v R.l 1 ; z.m 5 S A ..G A p < p ",
"< < .   . % l z l z l l z A S S A S A ..G A a < p < < .   . % l z l m E.l @ ; f.m 5 z g.m 5 v ~.< p < < .   . % l z l z z l z A ",
"S S A S A ....A p < p p < .   . % l z l z l l z A S S A S A ..G A p < p m H ..)...@ G p.v i z d.z A S S A S A ..G A a < p < <   "
};
