/* XPM */
static char *_daca2ecac2d41eeab3fb0891485c6dfbLBG9KehKvi6ftxx[] = {
/* columns rows colors chars-per-pixel */
"64 64 216 2 ",
"   c black",
".  c #160805",
"X  c #161405",
"o  c #161B05",
"O  c #230805",
"+  c #2D0805",
"@  c #310805",
"#  c #3E0805",
"$  c #2C1505",
"%  c #3D1305",
"&  c #321805",
"*  c #3D1C05",
"=  c #162305",
"-  c #162C05",
";  c #163305",
":  c #163905",
">  c #262905",
",  c #3B2305",
"<  c #312905",
"1  c #3B2C05",
"2  c #233605",
"3  c #3D3305",
"4  c #383C05",
"5  c #490A05",
"6  c #540905",
"7  c #5A0805",
"8  c #481705",
"9  c #571805",
"0  c #4A2505",
"q  c #452905",
"w  c #582605",
"e  c #542D05",
"r  c #4A3405",
"t  c #563205",
"y  c #43231C",
"u  c #49281C",
"i  c #5D231C",
"p  c #532A1C",
"a  c #43331C",
"s  c #4F331C",
"d  c #433B1C",
"f  c #5D331C",
"g  c #6E2A05",
"h  c #673805",
"j  c #67241C",
"k  c #7A241C",
"l  c #6A361C",
"z  c #733427",
"x  c #733827",
"c  c #164D05",
"v  c #284605",
"b  c #3C4C05",
"n  c #2C5305",
"m  c #3E5505",
"M  c #454805",
"N  c #564B0D",
"B  c #43451C",
"V  c #434B1C",
"C  c #43541C",
"Z  c #5E561C",
"A  c #6A471C",
"S  c #6A4B1C",
"D  c #79561C",
"F  c #4B6A1C",
"G  c #726B1C",
"H  c #734427",
"J  c #735A27",
"K  c #736827",
"L  c #653656",
"P  c #653C56",
"I  c #763752",
"U  c #654456",
"Y  c #654C56",
"T  c #655256",
"R  c #655C56",
"E  c #7D5756",
"W  c #656256",
"Q  c #86231C",
"!  c #8C2C1C",
"~  c #8C3427",
"^  c #9B3F27",
"/  c #984705",
"(  c #9B5605",
")  c #884A1C",
"_  c #84571C",
"`  c #96511C",
"'  c #A94A05",
"]  c #B54A05",
"[  c #A35505",
"{  c #AC5C05",
"}  c #B85605",
"|  c #9A6E05",
" . c #90700B",
".. c #A86905",
"X. c #A97305",
"o. c #B87205",
"O. c #8D4E27",
"+. c #B55827",
"@. c #9F6C27",
"#. c #C6641C",
"$. c #D5631C",
"%. c #C9751C",
"&. c #D6711C",
"*. c #C36A27",
"=. c #8D3656",
"-. c #863956",
";. c #9A3656",
":. c #A63656",
">. c #894656",
",. c #994556",
"<. c #885656",
"1. c #8C5B56",
"2. c #9E5A56",
"3. c #AA4956",
"4. c #A75956",
"5. c #B75C56",
"6. c #8A6556",
"7. c #986756",
"8. c #9B6B56",
"9. c #8D7956",
"0. c #987656",
"q. c #AA6756",
"w. c #BB6656",
"e. c #E55E56",
"r. c #F95E56",
"t. c #D96C56",
"y. c #E57756",
"u. c #658556",
"i. c #A88205",
"p. c #D4941C",
"a. c #8D8356",
"s. c #A48456",
"d. c #EE8456",
"f. c #EB9556",
"g. c #FC9756",
"h. c #F5B256",
"j. c #885D83",
"k. c #A65D83",
"l. c #886383",
"z. c #886D83",
"x. c #887383",
"c. c #887C83",
"v. c #A76C83",
"b. c #AB6A8C",
"n. c #BA6C88",
"m. c #AB728C",
"M. c #AB7C8C",
"N. c #B7748D",
"B. c #B77B8D",
"V. c #BA7E8C",
"C. c #CD5D83",
"Z. c #C66A8C",
"A. c #D26A8C",
"S. c #C8778A",
"D. c #D47984",
"F. c #D7798A",
"G. c #E27A84",
"H. c #ED7984",
"J. c #EC738C",
"K. c #F17984",
"L. c #FD7984",
"P. c #888383",
"I. c #888983",
"U. c #9A8583",
"Y. c #889183",
"T. c #AB848C",
"R. c #AB8C8C",
"E. c #B98989",
"W. c #AB948C",
"Q. c #AB9A8A",
"!. c #B7948D",
"~. c #B79D8D",
"^. c #88B283",
"/. c #ABA98C",
"(. c #B3A583",
"). c #B7A38D",
"_. c #C6858C",
"`. c #D48384",
"'. c #D48C84",
"]. c #D68A8A",
"[. c #C49889",
"{. c #D49384",
"}. c #D49C84",
"|. c #D6968C",
" X c #EA8584",
".X c #FC8584",
"XX c #F08D84",
"oX c #FE8B84",
"OX c #E59584",
"+X c #FD9484",
"@X c #FD9D84",
"#X c #FB9D88",
"$X c #D4A284",
"%X c #D5A989",
"&X c #D7B786",
"*X c #E2A984",
"=X c #FEA384",
"-X c #FEAC84",
";X c #FCA889",
":X c #E9B584",
">X c #F4B384",
",X c #FBB284",
"<X c #FDBD84",
"1X c #FFB28C",
"2X c #FFBC8C",
"3X c #D4C484",
"4X c #D4D084",
"5X c #FFC384",
"6X c #FECA84",
"7X c #FFC28C",
"8X c #FFCC8C",
"9X c #FFD384",
"0X c #FFD28C",
"qX c #FFDB88",
"wX c #FFE689",
"eX c #FFF486",
/* pixels */
"D.D.T.].b.D.j.y D.D.b.y . b.b.D.b.b.. . T.y D.D.S.b.. z . D.8XW.<.D.D.. c.D.b.. k.L . b.b.q b.j.G.D.1Xb.3X- @XH.D.b.b.D.; W.E.=X",
"N.D.. j.b.D.. b.f b.M.N.y D.b.L D.j.z j.y . b.. $ . . y 1.).+X. b.z . D.. K w B.b.y b.. X.b.w.l.N.y |.b.b.j.. . D.$Xj.. D.b.m.M.",
"b.j.b.N.b.1XW.N.D.D.'.P . D.: c.W.b.&XL l.b.. b.. b.' E.. . D.D.m.D.D.+X. m.4 u b.. b.b.. j.b.0XT.|.D.m.b.b.D.b.D.N.D.j.D.b.b.D.",
"D.y b.D.b.-X. m.b.-Xb.=XD.eX. y m.H.b.. *Xj.7X0 L b.b.. N.N.D.e r B.y D.U D.h b.. j.D.j.P W.b.b.D.L y 6 D.g.8X. L b.z.. 9.j.1XF.",
"=X. L . B :.b.m.m.b.D.y . D.Y D.5Xd D.S b.D.<X`.. N.. . L $XD.Y y . . y y . .XL . +X0XA.L b.D.j.P D.D.s D.o D.y b.R . . j.qXW.%X",
". l.N.l.oXj.k.x.N.D.b.. b.l.x.b.b.E.D.b.. $XN.y N.b.b.D.. b.L b.. . b.b.D.. m.j.b.b.j.2 N.D.D.. j.D.. D.J D.D.b.. z U N.b.j.y D.",
". m.D.V.h D.b.. . B.b.b.b.D.% <Xy N.N.D.L D.!.D.l.e N.m.~.L D.. D.D.D.b.D.W.l.#XD.A.D.j.D.D.D.+.D.6X. b.. D.. . R.L G.. . . z . ",
"D.j.. j.. >.b.L . . F.b.b.. D.9.2 ).D.6X'.. . b.D.j.. z.D.i . D.. . D.k . b.- D.6.D.D.m.D.D.c . y L . b.D.D.j.D.D.Y . P b.L D.D.",
"y b.[.b.b.D.b.D.L N.y L . . 1 b.L b.D.. D.. . . L.D.b.L D.D.T.y b.k.b.b.1 D.b.L z . . '.+X`.N.D.N.. . z D.. L . . L L b.L L y D.",
"D.N.L j.b.. D.j.'.m.j.D.L H.b.<.b.j.- 2 L . b.D.N.L D.~ 7Xy _.!.b.. 8 R.. D.Z E.D.D.5Xj.D.D.D.y P b., 8 . c D.B D.D.d.y 8.(.W L ",
"b.D.o c.y . D.. X B.N.B.. N.. N.j.b.. D.`.N.D.3 b.y y L , b.. b.D.p b.w S 3 L y `.D.D.B D.`.. }.D.. $XD.D.. oXb.. L j.eXD.b.D.D.",
"L j.b.P D.y k.b.D.m.. L . D.N.N.D.N.j.' b.z D.. . n.N.R.L T.b.b.. y . ^ D.$XD.X [ D.. L D.X y D.. D.D.5 . D.D.D.y . L y . 6 oXL ",
"o D.'.b.L D.. N.y X b.B.D.j.y :XN.N.y N.. b.K.D.D.. j.. N.m.b.L.D.D.b.D.@XY D.D.D.L % '.N.D.D.D.D.H.D.D.D.].D.D.y b.L P P .X[.0.",
"b.j.N.D.b.$._ $.N.L.% 3XD.* j.e D.).).. . j S.. t.m.D.. D.y D.D.{.L.D.X b.-.D.*X. D.D.7 j.. D.eX8 &XD.. D.. D.b.D.9X$X-XwXe . L ",
"y D.. D.D.x.R j.b.b.M.N.D.M . . ~.b.N.B.D.m.j.b.D.D.N.O.. 1XD.L D.y b.`.. D.O d.=.y D.D.D.B 5XD.D.D.D.y u . . b.L D.X L z y L { ",
"D.l.M.j.. +X. . b.D.H.I.{.D.b.D.N.N.Y D.y q b.. X b.b.D.D.. b.y y b.$X. x.. D.wXb.R.6Xs.L N.. . . - 6 z D.y D.D.K.L b.D.N.; N.  ",
"N.o `.L.0XT.c.. y .Xj.D.b.M.D.|.T.b.j.b.D.b.j.y D.$XD.. 9XD.D.m.D.o N.$ D.D.D.j.. D.y b.j.$X. y -Xi @Xh . . L $XU Q.b.b.L . . y ",
"b.F.$XD.. y . D.z . | L z D.. . j.y . . b.j.. D.D.H.D.. D.b.D.6X. . - D.D.. N.D.b.{.8.m.-XD.D.A L L D.z l x $XT D.. . P . 3.j.@X",
"j.L L |.j.b.. n L . . j !.D.. b.:Xj.$Xb.D.. D.b.D.D.; D.d D.b.$X. . . . X.=Xy y = b.D.D.D.o . D.@X@XD.D.o $ y y b.F j.<.y D.L P ",
"b.L @Xb./.E.D.g.b.D.. u m.. b.x b.. j.D.D.. R.- Z.o D.D.D.. D.D.$X:X[ Z.L 5Xy D.. L u D.. b.. z o y D.y L Z z D.N.D.D.b.. D.y j.",
". D.b.y j.D.j.6 . b.D.b.. . j.`.$XD.b.. D.. D.D.`.L . . D.D.D.`.;.b.. N.D.. D.D.D.D.<XW.D.D.. D.. e.b..X'.D.. D.. D.D.~ {.D.2.o ",
"b.[ ,Xy j.p.+X. . j.D.: b.N.b.D..  X|.6 D.% D.D.G.;Xz y D.K.m.G.= L D.. . 3XD.H.o D.D.b.. . 1.y wX. . V . y j y -X{.. y b.L L l.",
". b.b.o ,X. . D.. . j., j.D.. . D.y y D.P = @Xy y K.y .X,XD.D.b.. . L D.s j.( D.`.D.T.1 }.y D.`.R m.( D.. y L D.. -XR L 1.1.D.D.",
"b.j.9 D.1.I j.. y D.`.D.d . y . . 5XD.$XD.. . D.# y < D.. L D.N.b.D.D.D.. D.m.. = D.D.D.. D.b.E.X.$Xb.8 D.. y X `.j.b.b.t.D.D.L ",
"y L x.L.. D.n.b.. b.D.`.D.'.>X> b.m.. y = =XD.2XD.b.- t . M.D.D.@XD.. b.D.. b.L D.D.D.) . . 8.* 5.D.D.y ( . 7Xy b.L P L D.j.D.D.",
"P.b.N.D.. - F.b.S.. %X. j.. y D.1 D.. D.D.b.L N.b.. D.D.L D b.D.D.. D.j.D.D.. '.. H D.y b.M.. b . :.. . L . D.R.3XD.p L b.}.L j.",
"j.b.D.0Xb.J.X . * I.z y . D.z l.N.Y y D.j.D.D.D.; %X. D.y L D.j.T D.=XL D.. . D.. . j.m.D.D.D.-.'.N.D.. y . D.y N.u.. * u R.8X. ",
"D.D.+XR A.y b.L . . P D.y j.L y D.. D.D.. j.[.L D.j.D.N.M j.D.D.D.M.W L 7 D.D.y D.. oXd D.D.. L D.z L.X W.y Y.L F y `.0 $XD.b.. ",
"j.P.. y }.D.j.i b.L D.D.W.y y . D.R.D.. D.=XD.| . y @Xb.D.D.. D.b.b.. @XD.).L N.. D.$X#.y . D.L .X. B . . S D.< , D.$X@XD.D.D.o ",
"Z <XL D.D.o D.. . b.Y J =Xm D.L 8 b.D.D . . b.G.. M.. D.D.D.D.D.$ N.H.y D.D.>.L @X. D.D.b.L L 5Xy m.j.y . . . y ].D.. j.,.U ~.L ",
"oXD.D.b.y m.j.D.! . j.. j.j.D.5Xm.j.D.D.D.'.D.D.D.L.. l D.D.. H.D.. wX2X=X=X. D.. y R . +XD.9 >.D.L y y . . . D.& @XD.L D.G.|.. ",
"D.P N.y y -XD.D.m.P @ oX`.D.. m.D.. F.b.OXD.y oXF.}.L.D.y . L }.$Xj.L.D.D.D.& D.L D.D.-.>.. y O . i.y . .X!.'.y D.y G.b.y oX. . ",
"@XT.-XU D.m.. m.i . j D.y D.XXD.D.m.D.y D.- D.D.D.`.E.D.$X. @X=XD.D.b.y !.D.L y . z `.. . . D.z L y + y j.b.. y ~.y D.-.8.. L D.",
"1X6X%X. {.b.=XD.. m > . D.. y b.D.. D.oXb.. b.y b.. L L }.. &Xy . y b.7X. z D.+XD.D..X. . >XN.D.j.D.. D.'.b.b.. . '.b.N.. 4Xy . ",
"e.. z b.. N.D.D.D.y . eX. r b.D.D.D.v . j.L a =X. D.D.`.D.=.. D.. &XD.D.. D.y D.L . y . b.L - r j.N.z ` > L . D.q . =XL L o D.L ",
". & L b.D.. m.D.. wXb.D.. D.D.D.D.D.H.=XD.y =XD.D.D..X-X. D.{.c . D.D.D.. . `.. 5.L L s . N.j.= j.y p # . G . j.D.. D.y L I <.. ",
"D.j.W.y L - . D.z y j.. y D.b.@ -Xb.z D.L `.b.. D.D.. . D.. @X].. . . y . b.b.C.b.. d D.b.. z D.$XeXo . L y D.. b.D.b.y D.# i @.",
"$XD.N.D.O *Xk o }.= b.. D.. . @ D.L D.D.. b.D.L D.. 5 . N.D.. D.L D.D.. D.qXY D.L L j.. L L p . j.. L D.N.. |.O N.l . j.. o L . ",
". OX. 6X=XD.$Xy D.5XL y D.D.j.D.v.y D.; j.D.j.. . 9X. D.D.L j.y y L +Xb.D.. . D.. L . b.D.Q d y b.X . oX. . b.. L b.y D.D.. F.7.",
"D.- D.y D.. y y . M.. }.L.. D.D.L . K.D.. . R.; D.=Xy + D.` =Xb.D.y . D.y . W . . - % l.j.D.. y D.. D.o | y D.G y - y y wXL . L ",
"L N.=Xb.N.z.D.y D.w _.b.y y D.( . ] N.. G.~.L D.. ' D.b.. D.D.D.D.X.. L % 5X- M.L . D.b.D.D.b.b...L.B.- C . . . . N.P D.. . u.. ",
"D.. %Xq b . D.y y N.. T.'.L D.L D.D.. . wXy 5 b.D.D.. D.D.D.D.#XN.H.L . L D.L 8.L 9Xy j.y {.D.b.. ..b.. Q / y . D.}.. b.b.l.L b.",
"Z . b.. U b.}.'.'.8 y y D.,XD.-X X. . b.. . Q j.y > b.q D.y L D.. % . y ~ j.`.. N.. L L . D.r b._ D.D.b.. L D.6 D.M.. y Y D.D.. ",
"=XW.. X y D.y 3 b.y . y . y [ D.A D.k . . . y N.. L . . y b.b.8.. y D.D.D.b.{.2XO N.= y 4.j.D.L y U . D.D.D.y . m.N.z f.E j.,.& ",
"D.. . : ..- . a . H . b.X . '.{.D.L.D.. . L.X . G.. . . D.y z - N.. D.. . . D.7.y . . m.b.D.. q.&XD.b.. . . D.. . . y . b.D.L . ",
"b.. D.K.m.1 I.! . D.`.. - j.N.-.D.D.. . D.D.a.. . m.`.D.. L b.. . N.I D.D.. y.L z . y D.U j.. 7 y = L b.y b.$XK.- ) b.. y N.D.. ",
". v . b.y 0 R.. j.L.. A D.. D.; D.j.D.D.+ o b.P =X. D.. L . U L <X. . . D.- L L D.. - . V.B.y _ . r = M.z D.. F.. . y u y . q.D.",
"y =.D.D.. o y D.. j 7 M.L . <.|.N.. D.r.t D.z D.. . . . M.3.R j.. . z b.. . D.N.D.D.. D.D.4.. N.a j.D.. . . . . . _.- -Xy L L b.",
". . - . . y &.8XN.. b.. D.y < D.y D.b.. . D.. . . L D.. N.. L . . q }.;X[ D.. . . D.. 2Xb.. b.D.z.. Q.L . j.b.D.. . a %X. . D.j.",
". . D.. oXy y . . . j.D.: 5 }.D.. . - X.wXX D.. 9X. . . R b.. Z D.y . N.B.r l g D.D.. . D.L . y . `.X.L y D.y b.b.. L b.o y D.B.",
"B . . ^.$Xj.. y { . . D.D.y Z.b.D.2X$X. . . . z b.y y . . D.L y D.. I.. 0 N.D.. `.&.. [ D.. V b.. 6XD.%XN.$ y * B.E.. } . D.y 5X",
"o 2.Y : y . q b.D.z y a C . . y . . b.. . b.D.<Xb.b.. B b.. L L / $X. {.# D.b.+X- OXD.y y T . U y j.j.@X. ' b.=XD.m.D.. L D.b.L ",
"9X) `.@ j.D.b., L . . D.D.W L L D.D.. y . . qX. . L b.b.L `.D.}.. . 2XD.o.m.L X L . y _.y . @Xy D.D.D.. 9XD.Q r z `.D.U . y D.b.",
"L l.. z - . &.6.T.. . = y V o . D.D.. }.`.L oXp.D.. y . . L . b.N.@XN.W.A.> N.. { y D.y y X D.*.j.. . . . . . .Xb.}.+XoXy b.N.z ",
". . , X D.b.. . N.D.. . 3 b.y . . y W.b.D.. D.. 4.- D.N.`.; . . D.T o . . D.. . z D.D.L . . . . . . W.. m.= N.y D.. . b.oX. $XL ",
"y ~.N.D.. . b.. L D.X & . . . D.y D.. L D.M = . 4 . L L . . U.D.. % X D.. . - y N.3.f . g j.. y y . . . a  .y u . `.> . ;.y D.%.",
"B.. . . D.. -XL . b.. `.. - . b D.( E.. . D.y . b.y v./ V ; . L D.. . . D.8 . . b.D.. y - $X. . . [ b.N.. y . . . j.B D.. -XD.D.",
". N.. +X. ,Xb.. . . B.D.y D.y N.. . . +X. L y . L D.- . L = `.z y =.b.. L D.y y y B D D.L . +X. M.L.D.D.i b.D.. . y . b.L .  XS ",
". . . . D.. . b.. D.. N.D.. D.D.; } . N S D.D.. D.z b.{ `.g.D.. D.D.. $XL L D.. . b.. y . 7 7 . ; D.. y . L . D.X . D.. D.y . . ",
"N.b.L . b.X . j.i.m.. X N.. D.. C . L . . b.b.. D.. S.D.. . D.y 1 . . b.9XD.y D.o . D.M.y y y y 4.6.. L D.. Y L b.B.b.D.D.'.j.L ",
"D.# . . o D.j.R.D.$Xy 9 . y . D.M.b.. L y . . . G.j j.h. .. . L E.. b.. . b.D.m.y y y b.y @Xb.D.y . . D.' D.. L . . . `.y L.: . ",
"y y . | b.b.P b.j.l y T.. . . = D.. . . . y / $X. D.b.. } ' . #.b.D.D.. = , o U.D.. y L L 6Xy B.M.. . {.. D.Y . # H.D.y L.. y Y ",
". . y b.L D.; y . D.L . }.'.= , . . y . u . . N.L b.D.D.. b.*X. b.| N.b.. z . L . . `.y m.D.y o.. y . D.j.H.D.. . `.. b.0 0X-X. ",
"y . . - b.. . . D.Y b.: o L.N . . . . D.. z . [ L . y . *X. b.4 . L b.. . . . . . b.L j.D.D.=X. L . D.. -XD.. =X. . D.k . - r b."
};
