/* XPM */
static const char *UFRfQkVJR0U_[] = {
/* columns rows colors chars-per-pixel */
"64 64 11 1 ",
"  c #DBD8C9",
". c #DCD9CA",
"X c #DEDBCC",
"o c #DFDCCD",
"O c #E1DECF",
"+ c #E2DFD0",
"@ c #E3E0D1",
"# c #E4E1D2",
"$ c #E6E3D4",
"% c #E7E4D5",
"& c #E8E5D6",
/* pixels */
"##$++@++#@@@@$$$$#@###+@+@@@@#+++@@+O@O@#+@#+@@+OOo#O#+@+@+@####",
"##+@#++@@#$##$$%###@@$@@@@O+@@#@@OOO+@#+###@@@@#O+O+@O#+@+@@@@@#",
"@+@#+@++####$$##$$###@@+#@#+@@+@+O+@@+@@@#@O++OO++@OO+O++O+@+#@+",
"#@##++@+#@####&$#@@O##++@@#O##@#@++#@+#+#+@++@oOOO+@++O++@++@@@@",
"+@#@@@++$#%#$#%#$##@O+#@O++@+@@@@+O+@++@@@+@OO+OOO@O+++@@#+@++@@",
"@#@@@O@@@@##$#%%##@@++@OOO+##+##++@+@@@@#@+@+oO+OO+OO#@+@#++++@+",
"#@@@#@+####@$##$%#@+@#@+O++@+++O++@O+##@#@#+OO+@O+OO+@++@#++++@@",
"##@######@@######@$+@OO+@#+#+O@+@O@@####@#@+@O++O+@+OOO+OO@O+O+O",
"#+@####@#$##@###$#$##@#OO#+@+@+O+@#@O#@@#+@@O+OOOO@@OOOOO#@@@@@+",
"#####++@####$$#####@+@O@++#+@++O+++o+@O#@@#O+OO@OO@++++OO@#@O@O@",
"#@#@@#+@#@%###@#$&##$+O#@@#@#@O@+++++@+#@##@O@#@+@+@+OOO@+++@##@",
"###@#@@###$$$$$%+O%##$@#O+O##@@+O@O+O@@+##@@#+#@++@+@@@++#@@@##@",
"@@######$#%@##@%$##$###@O@O@#@##+OOO#####@##+#@#+++@OO+++@@#@@@#",
"#@++#####%$#$%##$#%#$##@@@##@@#+++@+@#O+##@++#++O+#@Oo++@++###@#",
"@@#@+#@@@###$#$%$##%##@@++@#++@+@+O++@#@#@O+@O@@+O+@O+@@+@@####+",
"@#@#+@####$$$#$$####$@@@+##@#@#@+#+@+O###++O@#++@@O#O+OO##+@#@@@",
"###+O++@#$##$%##%#@##@O+#+O#@++#@#@@+@####@+@+#@OO@#OOOO@@@##$##",
"###++@++#@########@###@#+@+#O+++@+OOO@++@OO@@@++OO#@OO+@@##@#$##",
"$##@@@+@@@#@####$###%#+++@@@O+@#O+O#@@++@@OO+O@OOoO+OOO@##++@@#+",
"+###++@+@##$%##@###$#$++O@+++@++@OoOO+++#@@@@OO++O++OOO@#@####@#",
"###@@@++@@$##%%%#@##$#+@++@++O++OOO++@+O@@@@OOOOOO+O@OO+O++@@@@#",
"###@#@+@@####$#$$#####@@+@O++#+@+OOO@O#+O@@OO@@++OO@O+OOO+@+###+",
"##@@#@@@@@###$#@###@@#+@++++#++OOOOOO#+#+O#O+@+@O++@@OO++@@@@@@@",
"#@#@#+@++@####%#$$O#@#@@##+@@@@O@OO++O@@++@OOO+O@OO@+OOO+O@O#@@@",
"###+##@+@@#@#$%$####$#+@O#@@@#@O+OO#O#+@@+@O++++OO+@++#@+O@@+@#@",
"##@#@#+++@#@#$#####$#$+#O@#O@+O+@@+O@+#+@+@O+++@+O+OO +O+Oo++#@#",
"##@$@##++O###$#%$####@#O@++@#+++#++#++##@@+#+O+OOO+OoO+O+++O+@#@",
"###@#@#+O@@@###$%$#@@@##@++@+++++O++O+@#@O+O+@+@O+OOO+O+O++@++##",
"$#$@##@++@#+###&&#$##$++@@O+@@@+@+@++++O+@O++++@+++OOOOO@+++++@@",
"@@#@O@@@+@##@#$##$#####O++@@+OO##+++++OO##++++++++OOOOOO+@@+++@@",
"####@@##O@#@#$##%#%#$#@++OO+O@+@@+@O@+@+@+@O++@+++O+O++OO+O+O@+@",
"###+#@+@@@#+##%#$$#@#@O#+O#+++@@+@@++@++@@@OO#@++O+OO+OOO+++@@@+",
"##@#@@@@@###$$#$#@#@@#+#O@@++O+@+@OOO@@@O@OO@O+++++++O@OO+OO+#@@",
"@@@@@@@@$#%%##$$#+#####O@+#@#@#@O+OO@@#+O@O+O+@@OO+#OO+O@+@@@###",
"@#@#+#@@####$&#$%$@$##@+@@@+O+@#@+O+O+OO+O@OOOO++O@++oOOO#+#@@@#",
"###@@####$###$#%##$#@#@##@##++@OOO+++@+@#@O@++++@++@+OOO@+@##@@#",
"@@@+++@###$##%%&$#$###+@O@@@++@@@OO+@@@+@O#+@#+@OOO@O+OO+++@####",
"###+@OO###$%###$###$#$@@+#@+@@+O#OO+@+++@O+++OOOOOOOOO+@O@#@@###",
"###@+++@##$$$$%$%%$####@++@@#@O#O+#+++@#+#@++O+OOO+#O@+O+@@@#@#@",
"+@@#+@@###$#$$%%#%$####+@$#+++@+@OO@++++++#+++@O@OOOoO+++O@+@###",
"@##++@+###$$#$#$$#####+##@##@++@@++++@++@@+#O+O++OO+OO++O+@+#++#",
"@##++@#@##$#$###O@#####OO@@O+#O++O+O++#O+++O++OOOOOOOoO+++@++@@@",
"##++@@++###$%$##$@##@#+@oO@+@@+O+++OOO@@@+@OOOOOOOo+OOOO+@@+@#@@",
"@@@@++@#+@$###%#O%$##+@+O+@@@#@OO+OO@#O@++O@OOO+OOOOOOO+@+@+@@@@",
"#@@#+@+#+###$$###+####+++@+@+@#@O+O#@@O++O+OOO+oOOo.OOO++#@@@##@",
"@#@#O+++###%###%#$@####++++++#@@OOO@O+++OOO#@OOoOOOOOOOO@@@@#@@#",
"@@@@O+++@####$@$##+#$##+OOO@@+O+X+++@OO@+@OOO+O+OO+O+OOOOO+###@$",
"##++++@+######$$########+#++++@O#OO+O+++++OOO+OOOOOOOOOO+++@###@",
"@#@#++@@#@###$#%%$####+@O@+@+@OOOOO@+OO@O++OOO+OOOOOO++OO++@#@##",
"#+@+++@@##$$#$#&%#####+@O+++++O+++OOO@@O+@O+OO+OOOoOOooO++@#+#@#",
"###@OO@@#@@###%$%#@@#@@+O++@O@+@+OO@OO++OO+oOO+OOOOOOo+OO+O@@##@",
"#@@+@++@#@###$#$#$##@#+OOO+@@##@OOOO+O++#++@oOOOOOoOOoO++O+@####",
"#@@++++@#@##$#$#$$###@@O@+#+O@+O+@O+O@+#++O+o+OOOOOOOOOO+++###@#",
"@@#@O+@@@@$###%%##$@$##OO@OO++OOOOOO+@+#+++OO@OOoOO+OOOO@+++##@+",
"##@+@@+@#@##$#$%$#$@#$++OO+OOOOOOOOO@O+++@+@OOOOoXXOOOOOOO@@#@@#",
"###@+++@###$%%$#$$@##@@++O+@O+#+OOOO+@@O++OOoOOOOOOOOoooOO@#@###",
"###@+++@#@$#$######@##+@O+@OOOXOOOO+O++O@+OOOoOoOXOOOoOOOO@@####",
"####+++@##%#@$#$%###%+++O+++O+OOOOO+O+++O@++OOOOooOOOoOOO+@##@##",
"@###+@+@@##$$#%##$$###O+@+@O+O++OOO+++O@@OOOoOOOOOOOOoOOOO+#####",
"##@+++++@##@###$#@##@#@OOO+@OO+@oOO@OO+@OOOO+OOoOXOOoo+OOO@@####",
"@##@@+++@##$###$##@##O+O+OO@OOOOO+oOO+++@+OO+OXOOXOOXOooO+@@###+",
"###@@+++@###%#####@@#@+OO+++OOOOOOO++++O+OOOoooOOoXOOX+OO@@+###@",
"#%$#+++@@@$#%#$#$$$@#@@@++@O++OOo+oOOOOOoOoOoOOOooo+OoOOOO@@#@#$",
"##@#@+++@@%#$%$##+@#@@+OoOOOOOOOOO++OOOO@+++OooOOoXoOXooO++@####"
};
