/* XPM */
static const char *UFRfQkxBQ0s_[] = {
/* columns rows colors chars-per-pixel */
"64 64 5 1 ",
"  c #232323",
". c #272727",
"X c gray17",
"o c #2C2C2C",
"O c #313131",
/* pixels */
"oooXXXXXooXoXooOooooooXoXXooooXXXooXXXXXoXooXooXXX.XXoXoXoXooooo",
"ooXXoXXXooooooOoooooXooXXXXXXooXoXXXXooXooooXoXoXXXXoXoXXXoXooXo",
"oXooXXXXooooooooooooooXXoXoXoXXoXXXoXXXXXooXXXXXXXoXXXXXXXXoXoXX",
"oXooXXXXooooooOooooXooXXoXoXooXooXXoXXoXoXoXXX.XXXXoXXXXXoXXXoXX",
"XooXXoXXooOoOoOoooooXooXXXXXXXoXoXXXoXXXXXXXXXXXXXoXXXXXooXXXXoo",
"oooXXXXooXooooOOooooXooXXXXooXooXXoXooXXooXXXXXXXXXXXoXXXoXXXXXX",
"oooXoXXooooooooooooXoooXXXXoXXXXXXXXXooooXoXXXXXXXXXXXXXXoXXXXXX",
"oooooooooXoooooooooXXXXXXoXoXXXXoXXXooooooXXXXXXXXXXXXXXXXoXXXXX",
"oXXooooXoooooooooooooXoXXoXXXXXXXooXXoXooXooXXXXXXXXXXXXXooXoXXX",
"oooooXXoooooooooooooXXXoXXoXoXXXXXX.XXXoXXoXXXXXXXXXXXXXXXoXXoXX",
"oXoXooXXoooooooooOoooXXooXoXoXXXXXXXXoXoXoooXooXXXXXXXXXXXXXXooo",
"oooXooXoooooOOOOoXooooooXXXooXoXXXXXXXoXooXXoXooXXXXoXXXXooXXooo",
"ooooooooooOooooOooooooooXXXXoXooXXXXoooooXooXoooXXXoXXXXXooooXoo",
"ooXXoooooOooooooooOoooooXXoooooXXXoXXoXXoooXXoXXXXooXXXXXXXooooo",
"oooXXooooooooooOoooOooXXXXooXXXXXXXXXooXooXXXXXXXXXXXXoXXXXooooX",
"ooooXooooooOooooooooooXXXooXoooXXoXXXXoooXXXooXXXXXoXXXXooXXoooX",
"oooXXXXXoooooOooOoooooXXoXXooXXoXXXXXooooooXXXoXXXXXXXXXXooooooo",
"oooXXXXXooooooooooooooooXoXoXXXXXXXXXXXXoXXXXoXXXXXXXXXXoooooooo",
"oooXXXXXoooXooooooooooXXXoXXXXXoXXXXXoXXXXXXXXXXX.XXXXXXooXXXooX",
"XoooXXXXoooooooooooOooXXXXXXXXXXoX.XXXXXoXoXoXXXXXXXXXXXoXoooooo",
"oooXXXXXoooooOOOoXooooXXXXXXXXXXXXXXXXXXoooXXXXXXXXXXXXXXXXXXooo",
"ooooooXoXooooooooooooooXXXXXXoXoXXXXXXoXXooXXXoXXXXXXXXXXXXXoooX",
"ooXooXoooooooOooooooooXXXXXXoXXXXXXXXoXoXXoXXoXXXXXXXXXXXXoXXooX",
"oooooXoXXXooooooooXoooXXooXoooXXXXXXXXooXXXXXXXXXXXXXXXXXXoXoooo",
"oooXooXXoXoXooOoooooooXXXoXXoooXXXXoXoXXoXoXXXXXXXXXXXXoXXoXXooo",
"ooXoooXXXXoXooooooooooXoXooXoXXXoXXXoXoXXXXXXXXXXXXXX XXXXXXXoXo",
"ooXooooXXXoooooooooooooXXXXXoXXXoXXoXXooXXXoXXXXXXX.XXXXXXXXXXoo",
"oooooooXXXXXoooooooXXXooXXXXXXXXXXXXXXXooXXXXXXoXXXXXXXXXXXXXXoo",
"oooXoooXXXoXoooOOoooooXXXXXXoXXXoXXXXXXXXoXXXXXXXXXXXXXXXXXXXXXo",
"XoooXXooXXooXooooooooooXXXXXXXXooXXXXXXXooXXXXXXXXXXXXXXXooXXXXX",
"ooooXoooXooXooooOoOoooXXXXXXXoXXoXXXoXXXoXXXXXXXXX.XXXXXXXXXXXXo",
"oooXoXXXXooXooOoOoooooXoXXoXXXXXXXoXXoXXoXoXXXXXXXXXXXXXXXXXXXXX",
"oooooXXXooooooooooooooXoXooXXXXoXoXXXXXXXXXXoXXXXXXXXXXXXXXXXooo",
"oXooXXoXoooooooooooooooXoXoooXooXXXXoXoXXXXXXXoXXXXoXXXXXXoXXooo",
"ooooXooXooooOOoooooooooXXoXXXXXoXXXXXXXXXXXXXXXXXXXXX.XXXoXoXXXo",
"ooooXooooooooooOoooooooooXooXXXXXXXXXXXoooXXXXXXXXXoXXXXoXXooXoo",
"oooXXXooooOooOOOooooooXXXXXXXXXoXXXXXoXXXXXXXoXoXXXXXXXXXXXXoooo",
"oooXXXXooooOoooooooooooXXooXXXXXXXXXXXXXoXXXXXXXXXXX.XXXXXoXoooo",
"oooXXXXXooooooooOOoooooXXXoooXXoXXoXXXXoXoXXXXXXXXXoXXXXXoXXoXoo",
"XXXoXXXooooooooOoOoooooXoooXXXXXXXXXXXXXXXoXXXXXXX.X.XXXXXXXoooo",
"oooXXXXoooooooooooooooXoooooXXXooXXXXXXXXoXoXXXXXXXX..XXXXoXoXXo",
"XooXXXoXooooooooXooooooXXooXXoXXXXXXXXoXXXXXXXXXXXXX..XXXXXXXooo",
"ooXXXXXXoooOOOooooooooXXXXoXoXXXXXXXXXXoXXXXXXXXXXXXXXXXXooXoooo",
"oXXXXXooXoooooOoXOoooXoXXXXXXooXXXXXXoXoXXXXXXXXXXXXXXXXXXoXXooo",
"ooooXXXoXoooOOoooXooooXXXXXXXoooXXXoXXXXXXXXXXX.XX. XXXXXoXooooo",
"ooXoXXXXoooOooooooXooooXXXXXXoooXXXXXXXXXXXoXXX.XXX.XXXXoXoXoooo",
"ooXoXXXXooooooooooXooooXXXXXXXXX.XXXoXXXXXXXXXXX.XXXXXXXXXXooooo",
"ooXXoXoXooooooooooooooooXXXXXXoXXXXXXXXXXXXXXXXX.X.XXXXXXXXXoooX",
"XoXoXXXXoXoooooOOoooooXXXoXoXXXXXXXXXXXXXXXXXXXXXX.X.XXXXXXXoooo",
"oXXXXXXooooooooOOoooooXoXXXXXXXXXXXXXXXXXXXXXXXXXX....XXXXXoXooo",
"ooooXXXXoooooooOOooXoooXXXXoXXXoXXXXXXXXXXX.XXXXXXXXXXXXXXXoXooo",
"oooXXXXXooooooooooooXoXXXXXXXXXoXXXXXXXXoXXo.XXX.X.XX.XXXXXXoooo",
"ooXXXXXXoooooooooooooXXXXXoXXXXXXoXXXXXoXXXX.XX.X.XXXXXXXXXoooXo",
"XooXXXXoooooooOOoooooooXXXXXXXXXXXXXXXXoXXXXXX.X.XXXXXXXoXXXoooX",
"ooXXXXXooXoooooOooooooXXXXXXX.XXXXXXXXXXXXXXX.XX...X.X.XXXXooooo",
"oooXXXXooooOOOooooXooXoXXXXXXXoXXXXXXXXXXXXXXXX...XXX...XXXooooo",
"oooXXXXoooooooooooooooXXXXXXXX.XXXXXXXXXXXXXXXX.X..XX.XXXXoooooo",
"ooooXXXoooOoXoooOooooXXXXXXXXXXXXXXXXXXXXoXXXXXX..XXX.XXXXXXoooo",
"ooooXXXoXoooOoOooOooooXXXXXXX.XXXXXXXX.XoXX..XXXXXXXX..XXXXXoooo",
"oooXXXXXXooooooOoooooooXXXXXXXXX.XXXXXXXXXXXXXXXX.XX..XXXXXXoooo",
"XooXoXXXXooooooOoooooXXXXXXXXX.XXX.XXXXXoXXXXX.X..XX.X..XXXXoooX",
"oooXXXXXXoooOoooooooooXXXXXXXXXXXX.XXXXXXXXX....X..XX.XXXXXXoooo",
"ooooXXXXXXooooooooOXooooXXoXXXXX.X.XXXXX.X.XXX.....XXXXXXXoXoooo",
"oooooXXXooooooOooXoooXXXXXXXXXXX.XXXXXXXXXXXX..XX...X.X.XXXXoooo"
};
