/* XPM */
static const char *UFRfQ09BTA__[] = {
/* columns rows colors chars-per-pixel */
"64 64 4 1 ",
"  c #3A3A3A",
". c #3F3F3F",
"X c gray26",
"o c #444444",
/* pixels */
"XXoXXXXXXXXXXooooXXXXXXXXXXXXXXXXXXX.X.XXXXXXXX....X.XXXXXXXXXoX",
"XoXXXXXXXXoXXooooXXXXoXXXX.XXXXXX...XXXXXXXXXXXX.X.XX.XXXXXXXXXX",
"XXXXXXXXXXXXooXXooXXXXXXXXXXXXXX..XXXXXXXXX.XX..XXX..X.XXXXX.XXX",
"XXXX.XXXXXXXXoooXXX.XXXXXXX.XXXXX..XXXXXXXXXXX.X..XXXX.XXXXXXXXX",
"XXXXXX.XoXoXoooXooXX.XXX..XXXXXXXX.XXXXXXXXX..XX.XX.XX.XXX.XXXXX",
"XXXXX.XXXXXXoXooXXXXXXX.X..XXXXXXXXXXXXXXXXXX..X..X..XXXXXX.XXXX",
"XXXXXXXXXXXXooXooXXXXXXX.XXXXXXXXXXXXXXXXXXX..XX.XX.XXX.XXX.XXXX",
"XXXXXXXXXXXXXXXXoXoXX.XXXXXXX.XXX.XXXXXXXXXXX....XXX...X.XXXXXX.",
"XXXXXXXXXoXXXXoXoXoXXXX..XXXXXXXXXXXXXXXXXXX.X.X.XXX.....XXXXXXX",
"XXXXXXXXXXXXooXXXXXXXXXXXXXXXXX.X.X.XX.XXXX.XX.X..XX.....XXX.XXX",
"XXXXXXXXXXoXoXXXooXXoXXXXXXXXXXXXX..XXXXXXXX.XXXXXXX..XXXXXXXXXX",
"XXoXXXXXoXooooooXXooXoXX.X.XXXX..X...XX.XXXXXXXXX.XXXXXXXXXXXXXX",
"XXXXXXXXoXoXXXXoooXoXXXX.XXXXXXXXXX.XXXXXXXXXXXXXXXX..XXXXXXXXXX",
"XXXXXXXXooooooXXoXoXoXXXXXXXXXXXXXXXXX.XXXXXXXXX..XX..XXXXXXXXXX",
"XXXXXXXXXXXXoXoooXXoXXXXXXXXXXXXXXXXXXXXXX.XXXXX...XXXXXXXXXXXXX",
"XXXXXXXXXXooooooXXXooXXXXXXXXXXXXXXXX.XXXXXXXXXXXXXX.XX.XXXXXXXX",
"XXXX.XXXXoXXooXXooXXXX.XXXXXXXXXXXXXXXXXXXXXX.XX.XXX...XXXXXXoXX",
"oXX..XXXXXXoXXXXXXXXXXXXXXXX.XXXX.X..X..XX.XXXXX..XX.XXXXXXXXoXX",
"oXXXXXXXXXXXXXXXoXXXoXXXXXXXXXXX.X.XXXXXXX.XX.XXX.XX...XXoXXXXXX",
"XXXX.XXXXXXooXXXXXXoXoXX.XXXXXX.X....XXXXXXXX..X.XXX..XXXXXXXXXX",
"XXXXXXXXXXoXXoooXXXXoXXXXXX.X.XXXXXXXXXXXXXX...X..X.X..XXXXXXXXX",
"XXXXXXXXXXXXooXooXXXXXXXXX...XXXX..XX.XX.XX.XXXX...X.X..XXXXXXXX",
"XXXXXXXXXXXXXoXXXXXXXXXXXXX.X.X......X.XX.X..XXX.XXXX...XXXXXXXX",
"XXXXXXXXXXXXXooXoo.XXoXXXXXXXXX.X.XXX.XXXXXX..XXX..XX.X...XXXXXX",
"XXXXXXXXXXXXXooooXXXoXXXXXXXXXX....XXXXXXXXXXXXX..XXX.XX..XXXXXX",
"XXXXXoXXXXXXXoXXoXXoXoXX.XX.XX.XXX..XXXXXXX..XXXXXX.. X.X..XXXXX",
"XXXoXXXXXXXXXoXooXXXXXX.XX.XXXXXXXXXXXXXXX.X..XX..X...X..XX.XXXX",
"XoXXXXXX.XXXXXXoooXXXXXXXX.XXXXXX.XX.XXXXX...XXXXX.XXX.X.X.XXXXX",
"oXoXXXXXXXXXXXXooXoXooXXXX.XXXXXXXXXXXX.XX....XXXXX...X.XXXXXXXX",
"XXXXXXXXXXXXXXoXXoXoXXX.XXXXX..XX.XXXX.XXXXX..XXXX.......XXXXXXX",
"XXXXXXXX.XXXXoXXoXoXoXXXX.XXXX.XXXX.XXXXXXX...X.XX.X.X..XX.X.XXX",
"XXXXXXXXXXXXXXooooXXXX.X..XXX.XXXXX..XXXXXX..XXXXXX......XXXXXXX",
"XXXXXXXXXXXXooXooXXXXoXXXXXXX.XXXX...XXX.XX.X.XXXXXXX.X..X..XXXX",
"XXXXXXXXoXooXXooXXXoXXX.XXXXXXXX.X..XXXX.XXX.XXX..XX.X..XXXXXXXX",
"XXXXXXXXXXXXooXoooXoXoXXXXXXXXXXXX.X.X..XXX.X..XX.XXX....XXXXXXX",
"XoXXXXXXXoXXXoooXooXXXXXXXXXXXX...XXXXXXXX.XX...XXXXX...XXXXXXXX",
"XXXXXXXXXXoXXooooXoXXXXX.XXXXXXXX..XXXX.X.XXXX.X...XXX..XXXXXXXX",
"XXXXX.XXXXooXXXoXXXoXoXXXXXXXXX.X..XXXX.XXXXX.........XX.XXXXXXo",
"XXXXXXXXXXoooooooooXXXXXXXXXXXXX.XXXXXXXXXXX..X...XX.XX.XXXXXXXX",
"XXXXXXXXXooXooooXooXXXXXXoXXXXX.XX.XX.XX.XoXXXX.X.....XXX.XXXXXX",
"XXXXXX.XXXooooXooXXXooXXXXXXXXXXXXXXXXXXXXXX.X.XX..X..X..XXXXXXX",
"XXXXXXXXXXoXooXX.XXXXXX..XX.XXX.XXXX.XX.XXX..X...X.....XXXXXXXXX",
"XXXXXXXXXXXoooXXoXXXXoXX..XXXXX.X.XX..XXXXX...X....XX...XXXXXXXX",
"XXXXXXXXXXooXXoX.ooXXXXX.XXXXXX....XXX.XXX.X...X.......XXXXXXXXX",
"XXXXXXXXXXXXooXXXXoXXXXXXXXXXXXX.X.XXX.XXXX.X.X.... ...X.XXXXXXX",
"XoXX.XXXXXXoXXXoXoXXXXXXXXXXXXXX...X..XX.XXXX...........XXXXXXXX",
"XXXXXXXXXXXXXoXoXXXXoXX....XXX.X.XXXX..X.X.XXX.X..X.X....X.XXXXo",
"XXXXXXXXXXXXXXooXXXXXXXX.XXXXXX.XX.X.X.XXX...X..........XX.XXXXX",
"XXXXXXXXXXXXXooooooXXXXX.XXXXXXXX..XX.XX.XX...X......XX.XXXXXXXX",
"XXXXXXXXXXooooXooXXXXXXX.XXXXX..XX..XXX.XX.X..X.........XXXXXXXX",
"oXXXX.XXXXXXoXoooXXXXXXX.X.X.XXXX..X..XX..X..XX...X.......XXXXXX",
"XXXXXXXXXXXXXoXoooXXXXX...XXXXXX......XXXXXX...........XX.XXXXXX",
"XXXX.XXXXXXXoooXooXXXXX.XXX.XXX.XX.X.X.XXX...X.........XXXXXXXXX",
"XXXX.XXXXXoXoXooXXoXoXX..X..XX......XX.X..X..X.....X....XXXXXXXX",
"XXXXXXXXXXXXoXoooooXooXX..XXX.....XXX..XXXXXX..X........XXXXXXXX",
"XXXXXXXXXoXoooooooXXXXXXXXXX.XXX...XXXX.XX................XXXXXX",
"XXXXX..XXXoXoXoXXXXXXXXX.XX........X.X..X.X..............XXXXXXX",
"XXXX..XXXXooXoXooXXXoXXX.XXX.X.....XXX...XXX.............XXXXXoX",
"XXXX.XXXXXXooooXoooXXX.XXXXXX.X....XXX.XX.................XXXXXX",
"XXXX.XXXXXXXoXXoXXXXXXX...XX..XX...X.XXX.................XXXXXXX",
"XXXXXXXXXoXoXoXoXXXXX.X.X..X.X...X....XXXX.......... .....XXXXXX",
"XXXXXXXXXXXooXXXXoXXXXX...XX.X.....X.XX.X.............X..XXXXXXX",
"XooXXXXXXXoooXoooooXXXXXX.XXXX...X...........X............XXXXXo",
"XXXXXXXXXXoXoooXXXXXXXX...........XX....XXXX.............XXXXXXX"
};
