/* XPM */
static const char *UFRfRElSVA__[] = {
/* columns rows colors chars-per-pixel */
"64 64 12 1 ",
"  c #6B4E32",
". c #6C4F33",
"X c #6F5235",
"o c #705336",
"O c #715437",
"+ c #725438",
"@ c #735639",
"# c #74573B",
"$ c #75583B",
"% c #76593C",
"& c #785B3E",
"* c #795C3F",
/* pixels */
"#$%@@@@@##@#@%%%%$@$#$@#@@###$@@@##@@@O@#@##@##@oOo#O#@#@#@##$%#",
"$%@@#@@@#$%#%%%%%##@@%#@@@o@@##@#@@O@#%@$###@#@#@@@@#@#@@@#@##@#",
"#@##@@@@##%$%%##%%$#$#@@#@%@#@@#@@@#@@@@@%#@@@@o@@#OO@@@@@@#@#@@",
"#@##@@@@##%$%%&%%##O$$@@#@#@$#@$#@@#@@$@#@#@@@X@@O@#@@@@@#@@@#@@",
"@##@@#@@%#%#%%%%%%$#o@$@@@@@@@#@#@o@#@@@@@@@O@@@@@#@@@@@##@@@@##",
"#$#@@@@##@%$%$%&$$##@@#@@o@##@#%@@#@##@@##@@@oO@@O@@o#@@@$@@@@@@",
"###@#@@$$###%%%%%%#@@##@O@@#@@@@@@@@@#$#$@#@Oo@@o@@O@@@@@$@@@@@@",
"$##%#$##$@#$$$$%%#%@@@@@@#@#@@@@#O@@%$$##$@@@o@@@@@@@@O@@@#@@@@O",
"%@@####@#%$%#%%%%#%%#@#OO$@@@@@@@##@@#@#$@##o@O@O@@@o@@OO##@#@@@",
"#%###@@#%#%$%%%$%$%#@@@#@@#@#@@o@@@X@@@#@@#@@@O@oO@@@@@@O@##@#@@",
"#@%@##@@$#%#%%#%%&%$%@@$#@$@$@@@@@@@@#@$@%%#@##@@@@#@o@@@@@@@#$#",
"$#%@##@$%%%%%%%&@@%%#%#$O@@##@#@@@O@O@#@##@@$@##@@@@#@@@@##@@###",
"######$$%%&@$%#&%%$%%%##O@@@#@##@@@@#####@#%@###@@@#OO@@@####@##",
"$#@@##$$%&%%%%%$%$%#%%$#@@####$@@@#@@#@@$$#@@#@@@@##Oo@@@@@#$%##",
"##$@@####$##%$%%%%%&%%@@@@#%@@@@@@@@@##@$#@@@@@@@@@@@@#@@@@$$##@",
"#%##@##%#$%%%%%%%$#%%#@@@##@##%@@#@@@@###@@@##@@@@@%@@@@##@@$##@",
"###@@@@@$%$$%&$#&%#$##@@#@@$#@@$##@@@#$$#$#@@@#@@@##@O@@@####%%$",
"%##@@@@@##$%#$##$%##$$##@#@#o@@@@@@@@@@@#@@@@#@@oO##o@@######%$%",
"%%#@@@@@@@$@$%%#%$$$%$@@@#@@@@@#O@o#@#@@@@o@@@@@@o@@@O@@#%@@@#%@",
"@###@@@@#$#%%#%#$%#%#%@@o@@@@@@@#ooO@@@@#@#@#o@@@@@@O@@@#@###$##",
"%#$@@@@@##%##%&&%@$$%#@@@@@@@@@@@@@@@@@@###@@O@@Oo@@@@O@@@@@@##$",
"######@#@$##%%#%%%#%$##@@@@@@#@#@@O@@O#@@##@@@#@@O@@o@o@@@@@##$@",
"%#@##@####$$%%$##%%@@#@@@@@@#@@oO@OO@#@#@@#@@#@@@@@#@Oo@@@#@@##@",
"#####@#@@@$#%%%%%%O$#%@@##@###@o@@@@@@##@@@@@@@@@O@@@O@o@@#@####",
"###@$$@@#@$@$%&%%$##%#@@@#@@###@@@@#@#@@#@#@@@@@Oo@#@@##@@#@@###",
"%#@$#%@@@@$@$%%%%#%%%%@#@##O#@@@#@@@#@$@@@@O@@@@@@@@@ @@@@o@@#@#",
"#$@%##%@@@$#$%$%%#$####O@@@@#@@@#@@#@@##@@@$@o@@O@@ooo@o@@@@@@##",
"#%##%##@@@@@##%%%%#@@@#$@@@@@@@@@@@@O@@##@@O@@@#@@@@@@@@@@@@@@##",
"%%%@$##@@@#@$%$&&%%$%%@@@@@@#@@@#@@@@@@@@#O@@@@@@@@Oo@@@@@@@@@@#",
"@#%#@@##@@##@$%%%%%%#%#O@@@@@O@##@@@@@@@#$@@@@@@@@O@@o@O@##@@@@@",
"$##$@#$#@@#@%%$#&#%$%#@@@@@@@#@@#@@O#@@@#@@@@@@@@@o@@@@O@@O@@@@#",
"#$$@#@@@@##@%$%%%%$#%#@$@@#@@@@@@@#@@#@@#@#@o#@@@@@OO@@@O@@@@@@@",
"%$###@@@#$##%%%%%@$@#%@#@##@@o@#@#OOO@@@@@@@#O@@@@@@@o@@@@@O@###",
"#@##@@#@%#%%$%%%%@#%#%#o#@###@##O@Oo#@#@@@@@@@#@@@@#O@@O@@#@@$##",
"####@##@##%#%*%%%%#%%%#@@#@@@@@#@@@@@@@@@@@@@oo@@O#@@X@@@#@#@@@#",
"#%##@###%%%%$%%&$%%$@%###@##@@@@@@@@@@@#$#@@@@@@@@@#@o@@#@@#$@#%",
"###@@@####%##&&&%%%%$#@@@@@@@@@#@@O@@#@@@@#@@#@#O@@@@@@@@@@@#%%$",
"%$#@@@@#$$%%%%%%%%$%#%#@@##@@@@o#@@@@@@@#@@@@o@Oo@@ooo@@@@#@#$$%",
"#$%@@@@@#$%%%%%%&&%$$%$@@@###@@$@@#@@@@$@##@@o@O@@@#@@@@@#@@$@%#",
"@@@#@@@##%%$%%%&#&%$$##@#%#@@@@@@@O@@@@@@@%@@@@@@oo@Xo@@@@@@####",
"###@@@@$$#%%%%$%%##$%%@####%@@@##@@@@@@@@#@%@@@@@O@@oo@@@@#@#@@$",
"@#$@@@#@#%%%%%%$@####$#oO##@@$@@@@@@@@#@@@@O@@@oO@@@ooo@@@@@@###",
"##@@@@@@$%%%%%$%%#%$#%@@oO#@#@@@@@@@@@@#@@@@o@@o@@o@@@@O@##@####",
"#@@@@@##@#%%$$%$@&%##@#@O@@@@##o@@o@@#@#@@@@@@O@o@O@@oo@@@#@@###",
"###$@@@#@#%#%%$$#@%%##@@@@@@@###@@O#@@O@@@@@@@@oO@o.OOO@@#@##$$#",
"#%@#@@@@##%%#$#%$%@#$#%@@@@@@$##o@O@o@@@@@@$@ooo@ooo@@@@#@#@$##%",
"##@#@@@@#%%$$%#%%#@%%##@O@@@@@@@X@@@#@o@@#@@@@O@o@@@@@@o@@@#$$#%",
"#$@@@@#@##%#$$%%%#$#####@#@@@@#O#@o@@@@@@@O@O@OOoOo@o@oO@@@@$#%@",
"@#@#@@@@#@%#%%%&&%%#$%@@@#@#@#@@@@@@@@@@O@@@@@@@@oooo@@@@@@@##$#",
"$@@@@@@##$%%%%$&&%%###@#o@@@@@@@@@O@@@@@@@@@@@@oOoXooXo@@@@#@##%",
"%###@@@@###$%#%%%##@$##@o@@#@@@#@OO@oO@@@O@XO@@o@o@OOo@@@@@#@###",
"###@@@@@###$#%$%%%$#@#@@oO@@####O@OO@@@@#@@#oO@@oooOoX@@@@@@####",
"$#@@@@@@##%%%%%$%%$$#@@O@@#@@@@@@#@@@@@#@@O@o@@oOo@o@oO@@@@##%@#",
"@##@@@@#@#%$%#&&##%#%$#O@@@@@@@OOo@O@@@#@@@o@#ooo@O@oOo@#@@@###@",
"%%@@@@@##@#$%$%&%%%#%%@@OO@@@oo@OO@@@O@@@@@@@oO@XXXooOo@@@@####$",
"###@@@@##%$%%&%%%%@##@#@@@@@@@#@@@@@@@@@@@@@oOOooooOOXoX@@@##$$#",
"%##@@@@###%$%$%%#%%@%#@@@@@@@@XO@Oo@@@@@@@@Ooooo@XoO@XOoO@###$$$",
"%$##@@@###&%@%#%&%#$%@@@@@@@O@@O@Oo@@@@@@#@@OoOoXXoO@oooO@@###%#",
"####@@@#@%#%%%%#%%%###O@@@@@@o@@oOO@@@o@#@OoX@@ooooo@XoOO@@##%##",
"$$#@@@@@@$$#%%$%#@#####@@O@@@O@@oo@@@@@@@OOo@oOoOXoOXX@O@@#@#$$#",
"@$#@#@@@@%#%$%$%$%@##@@@@OO@o@oOO@oOo@@@#@O@@@XooXOOX@Xoo@@@$%#@",
"$#$@@@@@@##%&#$$%%####@@@@@@@@OOOOo@@@@O@@ooXXooOoXooX@o@@@@##$#",
"#%%$@@@@@@%%%%%%%%%@####@@#@@@o@o@o@@oOOoOoOo@ooXXo@@o@oOO####%%",
"#$#%#@@@##%#%%%%%@###@@@oOoO@Oo@oO@@o@@@@@@@oXo@oXXXOXoXO@@@###$"
};
