/* XPM */
static char *fadd8374305a415a84b3ffb29346c40a7k7dybDhe5InTkzr[] = {
/* columns rows colors chars-per-pixel */
"64 64 35 1 ",
"  c #160805",
". c #1E100D",
"X c #161616",
"o c #241613",
"O c #2C1E1B",
"+ c #43231C",
"@ c #4B2B24",
"# c #51312A",
"$ c #593932",
"% c #733427",
"& c #482B49",
"* c #653656",
"= c #6D3E5E",
"- c #734464",
"; c #7B4C6C",
": c #814235",
"> c #894A3D",
", c #885D83",
"< c #8C6187",
"1 c #90658B",
"2 c #966B91",
"3 c #9E7399",
"4 c #AB6A8C",
"5 c #B7748D",
"6 c #AF6E90",
"7 c #B37294",
"8 c #BF7C95",
"9 c #B9789A",
"0 c #D47984",
"q c #DC818C",
"w c #C5829B",
"e c #E28792",
"r c #EA8F9A",
"t c #C180A2",
"y c #CD8AA3",
/* pixels */
"440002    4+t $0000% $$00 +4r0 O  00$    +$4444r%O0r e0Oe0  *,  ",
",. +4$ @4o,%O+O,r04* 9.  0=.0+00 4+, 00O  0wr0r-400 O** 40o+ 40O",
"* 0q.240 0 y0+44+  4*r9 4+ * *4,5+045 **04  ++4+e5r0  00,405 +O0",
"4 , +,+0*r 43r ,;*0r+**5440O0Oo0o 0+o041t*0 4y0*r00%r 4++0r4+*04",
"o0  0ryr*+,t744y0*+r 4  0 4045 *95  *e 4;404er4 *0 * &0++0 50 +0",
"*0 ,0,4 *;4r4,00 040 054*o*, 0. *,8 0+O$00O00 **+ t4.*$   oe*4 4",
"6*4*000 0O5O0 3450O 545,   r ,244*40+0* 4++ 0,;0e+4   00 *++ O70",
"4 0 * ,$+0 ,  *04*  0 4;0t 0O4 e6 e. O 00  4 0+4+O0+04,00OO*$*+ ",
"*O$+r + ,,,44$0o0000eOeO5 5t 0r0+   O 50t 04; 0  0 4* 0%40*++$50",
"*,0+ q0+ 475,00- 00e50 0+   +0  + 0044r r+,r4$0*04e4 4r5O0*r+ * ",
"00 3 45O 0 *4# *5* 3 .O5590 * 5   +.00000r-*5*5O4t 00*444+r,* * ",
"04   *  +4+$54  *4O 0,4 0* 50*,44+0000800  0$,*4 or4.400  ,44 ,$",
"*0 0 q 545 4* 9*0;0r+ 04,+OO   500440* 44004y+0r  0O  5,$  *+4=%",
"  +r00 40,0  r r40+05 00404*+  q O0*0 0r40  0 440  40e;000 *,%04",
"0  49tO 0+,45*@0*   O0O 0*00 +  5 r 00;q 0**O400e0+  450; *0.004",
"   4; 0+0;#, 0$ +0rr;34t4,;0rO400Oo4r*0++340r+*0%4$*5,Or0>; 0+$4",
" 0r4 r  9 , Oe  45 05 e++e r ,*  , 040,+@r 4 *0 ,00o44 0#0,4  7O",
"+0r,  404rt04 04*4  0.  0r0 O400004 O0 r4 r + +  40rr4*04* ,00+ ",
"4*4tO9,0, %40*0,0+0o40 4, O    0  044 440r4 4*504%O 4+00404o,0 y",
"0  0;0r04O+0+ 0rr%, 0 0;24 4 0 %0O 0 5 ;34+405  0  -+4+4 0004+00",
"3  0 0+ 0 o,,50  0r* 54+  5,,0-o.%0+5  t4+0o0 $0r9+;#$0* 0e +000",
"0 5 00t,.*40 00- *y0000; r0e 4+0043O0r0 4 40050 4O *4$  4o00$0  ",
" 000 ;r-8+00r0 .r 40+0*4++4,O0t5+,O0,00 00 e0  %0 4O+0 0y0 +  O0",
"t040q0O r 0+0 046o , +0+,4 0*  0 30,r0,O4r 00r 0r9  0o440,4400 r",
" 4 r-e440 %O,04*,0 ,o 0,004044**++ 0+4,*  000 r *  + ,r00+O* *e0",
"0*,*++  4r O0,4*2 004 r,04 ,5 4 e00, #r %   4,O0+-r4* 0  09   4+",
"O**4+00 0>,*,* O0 0O,,+4*r$q0% 44 rt*00r4+**4*+;84+ 000;% O0+ , ",
"*0040544 0Orq0045+++r0 0,0 004r0004**rO440e*yO$ 744+ 0r+4*r*r34 ",
"*0 0,*0Or*0 4*o440450 400 044 0.O4,,0+r4@#*  05*4 4 4y 04+ r0  0",
" 44,++*000+ 00*00+; t , 0+4q00e*% q0.+040r+++0+0  +0  O  4 404r*",
"r*4040+ 0**o00. 8+ 05r e0405 0o4 .0++rr0* =000O  04 0O ;200%O5 %",
"0r* %0 +,r0***5;o0  40;O4q0+4 0r *O44008  r4r 4oX-450+0 * 44* te",
"O* 0000r+$0* 000r,r44;04e 0 43 $00++0=0$++44+0,4 5+ 54 +4t+04;4*",
" 4r0.%%0*0 00$rr4$54O>400040r+O0O**594O4+oy4* 4r0 400   *+ 5,   ",
"r,.5 *5  O  4+OeO0+5400* 00. 40*0e%0O0  r *r00or00  0e 5 0>O+e00",
" 0 *0*0+ 4*4% 0 4 40r.0 +e+0**5+O 0Or   *,, 4    0 4rr,$ e0 0.*+",
"0+04e 0$% 0 4 0 49O0 00 r 0 0**40-    00 +40 0+04, r+;$2 0*;*O+r",
"0O   ; 0 04<0% -  0**5r  ++r0$ 0400005, ,+ , 0440*4*%3e%w.O57o*%",
"oOrO4;4+ OO$++   r4 04 0#5++4,+++50*;+0O*>+ 0++>00 , +O+40 -r 4o",
" w% 404+ +4O0o$+ +4 40+**0 *;+*05+.*942r0   O 00 OO-4+, +0+0 t5*",
"*4 00 + +.40+   5+0  0O40;9 0000 5   r 00;  ;*r$*  $40,OeO+*4  4",
"44=   +0000  40O  4 4 o O0000++00r+*057  .+r+ 0rt+0,%4  4. #50  ",
" 0+O 4 +0* 4e* 0   0 04  0 0e,900O00;r$+ 400o# ;0   * *0+ *r$0*3",
"0 00*000r+ $+0;r;0044,o>O005++; r0*04e;0$*3 O004 0 #4; O5 +o5 0 ",
"00 0  0r0*0y0 00 74* 0*0 * 4O3eO0+    %**r 0404 0+%4+r40 +, +0r ",
"r4o+ 5 3 , 50*0  000*O* 0 .0 4+04+*  O%,t, $*$ 0O $0O ;*y %550 0",
"%+54O*4*r+;5,  0  40O* 0004 0-0+040   r, 0@O *$0r   ++0,0  4+,=0",
"00,45,954 e000r5,0400+  +00  t +050 ,00  o *+ O,     0* *OO *  0",
".40o*e0+@* r4+*00 40  5555+*0*+9+ 0  O9005000*0, 5O.+O 4.04$   0",
"45+ 004O r++5+4++  +r   ,+04 r0O+o 04 05+0t5rtO% 0+ ,+0 0+40+ *r",
",0r,r+*r , *  0004*00+t++0 4 7 *5,00r 4   0* +*04,e0*,;r 0+.40 4",
"*r0+ $ 5 O0*+0 o*4,4 405$ 0.0**40 40o 0.+   4ro Oo  5540 +4@4 +*",
"4** ++00 7 0$*r  00 .++4+  5 +>4  O ,40O0,r o0040 40,40450* *440",
"    0  O*  4  %*  *,4+.OO00*q4 +50 *%4*0* 50  0,r4 - 0q 00r0*04+",
";+ 90r0,%3*50 0r 0,55t5 050;   r0  405# 40y or0+  +#039 304r  4r",
"40040+, *+; *O 0 O+Or+ 95 0o+*000e5.$00,0* 4r- r*++0,.5  42++5. ",
"  0e0* 0400 0400r0  03 +r 4r   .   00r  000:4r*4+ w+ *0   0   4*",
"  *,504+00 O+0+4 4 , +0*  r7000+043+0 0 0500O*  $* +4 @0 0r   +0",
" 00 r*0r$   40OO+-+;005000y+,  0*   +44,.0+4 04*eo00-0 ;3 4400+ ",
" ,   4   ;90 r00r00@4O34 *004+   %e   4:O0+r  040$5  w t0 0,0O4e",
"0404 04,4 0+*+0;*   + 04 * , e40 0 *444 r00 404*  04*440O0   44r",
"+ .00    00+ 7 04+* . 0 +040 r  4ro> 0+ r00tw 0++;or$rro , ,o 5,",
"o0,;o %0o0% 4+ +0% *r rr040+4 4 4e0* 0 Or 450O0+00  0 4r 00 , r.",
" O00    +e+  4 5  r 2   5  *00$ 0.r, 50 4@+,;*047rO+0;5+0r 00*+ "
};
