/* XPM */
static char *_f0c3d85fdf74fe6a57257dd16aaa89e8VO5G4QLkU7wVo8m[] = {
/* columns rows colors chars-per-pixel */
"64 64 255 2 ",
"   c #5C5A52",
".  c #675848",
"X  c #665A56",
"o  c #755A50",
"O  c #566A55",
"+  c #5D6859",
"@  c #68654D",
"#  c #676758",
"$  c #75695B",
"%  c #69755C",
"&  c #77765C",
"*  c #685672",
"=  c #5B6866",
"-  c #5B776A",
";  c #587970",
":  c #696B64",
">  c #756C66",
",  c #6C7464",
"<  c #64746B",
"1  c #6C736B",
"2  c #687969",
"3  c #747463",
"4  c #797667",
"5  c #73746C",
"6  c #747C6C",
"7  c #7B7B6C",
"8  c #706977",
"9  c #677874",
"0  c #6B7C74",
"q  c #777877",
"w  c #747C74",
"e  c #7B7C74",
"r  c #8F6A58",
"t  c #AF6856",
"y  c #8F746A",
"u  c #847969",
"i  c #857B75",
"p  c #B4756D",
"a  c #D2695A",
"s  c #E56F5C",
"d  c #CE5861",
"f  c #C97368",
"g  c #D77869",
"h  c #D07371",
"j  c #E87A6F",
"k  c #5A8573",
"l  c #6A856E",
"z  c #76846B",
"x  c #698577",
"c  c #6B8B7C",
"v  c #748374",
"b  c #7B8373",
"n  c #768A74",
"m  c #74837B",
"M  c #7B847B",
"N  c #748A7C",
"B  c #7C8B7C",
"V  c #69937B",
"C  c #77937A",
"Z  c #86836A",
"A  c #87877A",
"S  c #84837C",
"D  c #96857C",
"F  c #85937B",
"G  c #A98677",
"H  c #CF8776",
"J  c #D7867A",
"K  c #E98579",
"L  c #F68B7C",
"P  c #6C5799",
"I  c #55738F",
"U  c #696886",
"Y  c #716F8C",
"T  c #77788A",
"R  c #697897",
"E  c #777A98",
"W  c #6D71AC",
"Q  c #7A7AA7",
"!  c #7375D0",
"~  c #777EEA",
"^  c #90748A",
"/  c #847898",
"(  c #AC7698",
")  c #8777B0",
"_  c #D97898",
"`  c #DC7BE3",
"'  c #688884",
"]  c #6C8D84",
"[  c #738B83",
"{  c #7B8B83",
"}  c #7A8988",
"|  c #6A9688",
" . c #749384",
".. c #7B9384",
"X. c #779B83",
"o. c #74938C",
"O. c #7C938B",
"+. c #749B8C",
"@. c #7C9A8C",
"#. c #6B8498",
"$. c #768799",
"%. c #6B9996",
"&. c #779794",
"*. c #7C9C93",
"=. c #76A489",
"-. c #6AA498",
";. c #77A697",
":. c #71AA95",
">. c #6B8AA8",
",. c #7687A5",
"<. c #7588B8",
"1. c #7092B1",
"2. c #7897B6",
"3. c #79AAA6",
"4. c #7BB6A7",
"5. c #77ACB4",
"6. c #598DDA",
"7. c #768AC8",
"8. c #7392CD",
"9. c #75A6C9",
"0. c #738DED",
"q. c #7AA4F2",
"w. c #838C84",
"e. c #888986",
"r. c #8B8C84",
"t. c #938B85",
"y. c #9B8A86",
"u. c #938D89",
"i. c #879788",
"p. c #84948C",
"a. c #8B928C",
"s. c #979788",
"d. c #94948C",
"f. c #9C938D",
"g. c #888994",
"h. c #829C94",
"j. c #889995",
"k. c #8C9B94",
"l. c #9D9692",
"z. c #939B94",
"x. c #979A97",
"c. c #9C9B95",
"v. c #A68C88",
"b. c #B78F8A",
"n. c #A3948D",
"m. c #A9948C",
"M. c #A39592",
"N. c #AC9593",
"B. c #A49A95",
"V. c #AC9B95",
"C. c #A49C9A",
"Z. c #AB9E9A",
"A. c #B69996",
"S. c #B39D9A",
"D. c #86A68B",
"F. c #87A597",
"G. c #97A49B",
"H. c #9CA39B",
"J. c #8DB29A",
"K. c #A6A598",
"L. c #A3A39D",
"P. c #ABA29D",
"I. c #B0AC96",
"U. c #B3A29D",
"Y. c #B9A59D",
"T. c #8988A8",
"R. c #8595A8",
"E. c #938CB0",
"W. c #8998B8",
"Q. c #9998B9",
"!. c #AA90AA",
"~. c #A696B8",
"^. c #88A8A5",
"/. c #98A9A5",
"(. c #88B6A7",
"). c #99B6A9",
"_. c #8DAEB8",
"`. c #A8A7A4",
"'. c #A4ABA4",
"]. c #ACAAA4",
"[. c #B4A4A1",
"{. c #BCA5A3",
"}. c #B3AAA4",
"|. c #B9ABA7",
" X c #BCADAA",
".X c #A7B5AB",
"XX c #B7B3AB",
"oX c #A6B5B5",
"OX c #B9B8B4",
"+X c #D68B84",
"@X c #C79588",
"#X c #D99687",
"$X c #CC8F93",
"%X c #D79894",
"&X c #E78B83",
"*X c #F98B86",
"=X c #E79488",
"-X c #FC948C",
";X c #E99495",
":X c #F89894",
">X c #FD9A95",
",X c #FF9D9A",
"<X c #CCA492",
"1X c #DBA597",
"2X c #E6A597",
"3X c #E6AB91",
"4X c #FCA49B",
"5X c #D38EAF",
"6X c #F991B2",
"7X c #C6ABA9",
"8X c #D5ABA7",
"9X c #C7B1AB",
"0X c #D3B0AF",
"qX c #C8B8B5",
"wX c #D5BAB8",
"eX c #EFACAE",
"rX c #FFA5A3",
"tX c #FFA9A5",
"yX c #FDACA9",
"uX c #FCB2AB",
"iX c #FFB9B6",
"pX c #92C4B6",
"aX c #A9C5B9",
"sX c #D8C2BA",
"dX c #F8C5BD",
"fX c #8C91CF",
"gX c #8899C8",
"hX c #989BC4",
"jX c #A99BC5",
"kX c #B09BCE",
"lX c #8DADCD",
"zX c #97A5C5",
"xX c #A6A6C6",
"cX c #B7A6C9",
"vX c #B1AED6",
"bX c #8F93F0",
"nX c #A89AF4",
"mX c #8EB0EE",
"MX c #AEA9EF",
"NX c #D191D1",
"BX c #EC97C9",
"VX c #CAACD1",
"CX c #FFA6C5",
"ZX c #F9AFD1",
"AX c #D49DFF",
"SX c #FF8FFF",
"DX c #C9B2F3",
"FX c #FDA9F5",
"GX c #AFC6C3",
"HX c #A2CFE6",
"JX c #CDCFC6",
"KX c #D7C6C3",
"LX c #EFCBC9",
"PX c #D6C3E9",
"IX c #F8CEF5",
/* pixels */
"IXLXsXJXLXwXiXN.VXjX XVXKXiX0XKXqXZXPXP. X0XVX}.DXLXqXqXKXsX9XDX-X'.{.9XvXwXKX9X|.LX0XqXBXwX9X,XwXwXKXiXwXPXKXKXqXcXLX<X0XqXiXwX",
"DXLXPXqXqX|.0XDX7X XwXIXXX9XqXDXS.~.N.d.t.<XN.4XjXeXS.U.VXN.y.,X:Xy.C.7XqXVXwXtXXX{.S.L S.kXA.[.wXyXVX7XDX8XY.Y.cXU.A.cX9XqXVXVX",
" X9XA.V.m.c.@XA.cXtX[.0X[.tX7XC.n.>X9Xt.:XVX0XU.eXuXMXN.0XD Q.n.M.kXVX[.L.cXKXN.l.v.M.nXy. X[.XX0XtX XiXU.S.G 9X~.S.4X7XZ.Y.7X{.",
"|.CXf.A.9X5XC.DXyXC.Z.|.}.M.MXi *Xi VXu.C.7XN.M.CXS.f.T.8Xn.i S.1X|.{.S.hX}.[.-X/ Y.t.d.A.wX>XS.7XcX%XV.kXV.S.VX8XXXqXFX7X7XIXcX",
"FXL y.A.VXV.,X0X~.-XB.V.D M.4XM.M.6X[.B.S.iXc.V.y.7Xt.x.KXuXxX X'.tX7X[.tXl.}.~.c.rX].cXrXqXwX|. X>XU.>XVX9X0X9X8XwX7XyXcX<XS.A.",
"b.E.>XvXM.S.Z.KXC.M.SXV.w.P.PX X|.>XZ.XXA.XXV.E.-X-XU.l.qXU.S.{.4Xd.Z.v.Q.S {.'.rXN.Y.B.>XcXN.*XC.!.y.m.rXV.V.>X{.Y.~.{.*XA.-XS.",
" X|.U.qX{.].>XvXk.u.c.v.c.>X7Xn.~.N.C.u.6X,Xf.S B.U.S.l.rXE.B.{.y.y.t.f.K t.[.V.c.<XcX4XM.|.v.A.v.A.M.CX8XZ.[.CXU.A.>X{.N.v.A.0X",
"jXn.-X9Xx.u.t.y.a.K B.l.P.~.|.B.c.tXN.d.t.A.T.m.rXx.jXC.{.[.z.rX*XV.N.cX9X|.7X4X'.|.A.P.[.{.Z.=XcX7XvX[.eX}.uX8X{.~.8XA.S.ZXyXVX",
"FX|.N.XXt.xXQ.>Xd.,X.XV.H.MX}.;Xu.rXQ.a.MXU.rXC.qX4X'.~.MXd.;XjXn.u.C.MXL.,X7XM.~.t.7XkXA >Xf.`.S.7XMX'.,X~.u.N.N.M.fXS.>XZ.~.qX",
"L.nXE.,XB.a.}.n.`.hX4XCXP.l.M.M fXC.*Xu.L.l.f.u.DXe.#Xi Z.w.S MXe.CXB.A.B.xX{.fXi *X>Xf.u.0XnXz.4XqX,Xc.f.l.hXD tXN.XXjX7XDXqXuX",
"a.M S.t.Q.fXOX>XzX[.{.c.bX[.>Xz.t.cXB.'.vXL.2X]. Xd.&XfXu.>XW.qXc.z.4XMXc.>XC.E.d.D MXW.yX].B.L.}.7XjXS 6Xy.f.y.qXbX,X>X0XM.n.C.",
"L.nXrX>XL.[.'.H.MXOX6Xu.i XXT.B.hX].:Xz.`.G.a.bXd.-Xj.n.a.w.S.MXa.:X`.n.T.M MXi -XS iXz.Q.~.DXa.&XjXt.f.r.AXd.tXeXC.jX8X7XnX@X>X",
"SXn.LXe.d.Z.Q.r.=XE.S i b.|.f.w.y.l.zXr.[.i E.S U.[.}.qXP.B.}.VXd.z.fXx.t.w.L.1Xz.kXtXL.Q.Q.:XV.t.{.].vX XZX].]. XBXB.t.XXV.{.[.",
"c.m.cXd.F.B.x.u.z.`.d.x.`.XXk.bXB.l.=Xa.$X{ 7.y.zXc.6XtXE.C.w.V.T.d.,Xy.f.E.tXl.a.r.[.w.&X5 `.u.x.{.~.l.,XS.a.A d.y.a.T.kXB.L.cX",
"H.;X|.fXa.U.i T.6X Xa.z.c.~.r.%Xr.e.m p z.E d.n.`.a.a.|.B.*XQ.f.a.r.~.t.d.*X{.l.H.<.}.~.c.-X%Xz.jX|.B.x.hXtXf.P.E.>XT.f.rXZ.c.C.",
"@XCXB.z.i cXS a.l.iX[.k.'.P.Q.p.L.{ z.w.}.u.kXe.{.,X/.5Xz.fXa.V.@.CXuX|.Q.p.C.cX~.,Xc.E.t.>XtX'.z.cXr.C.E.{.L r.y.S.U.U. XA.Q.`.",
"SX*Xw.E E.8X`.G.~.yXB.p.M.w.M M a.,.M M '.A { z.B.w.v a.B e.E.|.O.-XC.S.r.r.f.Q.l.*X{.E.c.U.7XL..X,Xr.M W.N.y.f.L.tXP.P.}.U.B.L.",
"n.VXi ] w.[.N.M.Y.dX~.N.B.d.,.;X9Xk.x.j.9XH.k.6XB.f.p.z.c.d.z.}.k.F.qXy.Q.w.d.u.r.y.qXa.h.xXwXB.a.hXu.D q I.d.c.M.}.~.'.w.L.r.k.",
"L {.a.G.d.x.d.Q.-XV.c.t.n.1 M { ZXa.O.a.vX{ w.m l.5 M P.G.T.B c.z.S a.e.w.w.L.M *Xa.VXw.O./.].S K a.e.T.{ U.B.W.=XOXt.y.r.P.m.b ",
"6Xf.u.a.}.u.H.f.qX5 B 5 U.Q.j.a.P.h.`.p.c.p.W.S.a.z.Q. XC./.G.qXH.K.f.xX .G.P.`.L.iX7Xz.p.d.VXz.Q.:X].H./.V.Z.hXOXCXe.0 d.Q.VXa.",
"SXP.}.XX8XnXr.,XU.4Xc.c.'.7.t.+X].r.R d.fX6 =XH.f.O.w.vXfXw.+XE.w.2 y.MXh.&Xf.y.W.x C.W w.f a.w.a.-XMXa.>XQ.d.M 1 *X! e.H  XE.a.",
"k.BX<.&XB.r.M w qXgXF.5XL.a.z.a.fX< &XM N.p./.C.bXc.tXXXp.0 s.fXa.CX|.wX/.zX'.MXz.4X`.c.[ P.MX/.4XC.iX}.c.z.y.Y.=Xu..XxXXXqXL.tX",
".XO.| w.cX0 p.#XvXw.v i `.q j 0 w I h G.C.a.J k.{ k.K /.< J Y Y.m a.K f.y.#Xm E 1 D -XE >Xw.qXM m d.iXv.5X: B.u D y.4X-XD b.7Xr.",
"c.R &Xp B p.@.F.a.&.6Xk.x.' ,.-Xq { @Xd./.h.k.ZX..;Xx |.] N ).Y.x.@X/.P.zXu.{ w *X1 [.x.G.lX`.>XuXfX].{ d.y c.tX$X7XMXA.G.L.VX=X",
"SXo.2X/.L.*.o.W.r.!.&Xa.m 1 <.u.J B ;Xd.p.<.Q %Xx R K eXO.m i DXa.[ x k.0 x < ' M { r.H.W.H.c.f.t.l N.A s.W.uXw.u.E.C.fX{ p |.e ",
"v } 0.:X+X..W..XG < N &XT.a.{ hX{ h.*.rXh.h.x /.R  .O.uX2.h.+.OXo.l.e.8Xp.W./.H.fX^.:XXXO.o.|.hXV.=XxXQ.H.<X[.c.H.hXC.R.s.w.C.xX",
"*.%.h.x.>X] ] L.I ] < k.+Xw.m /.D h.[ j.a 0.: 2Xw.w.M k.5Xt._ k.E 1 ( } { b T.S S [ w.W.{ 1 w > q r.`.p.w.S L.M T.M u.S f p H.m ",
"b Q <..Xj #.: F., <.O.iX] 2.,.eXv +.{ W.o.' ] '.p.j.o.xXF.j.| x.p.&XB.OXlXL.XXL.zX>X%X/.O.k.} fXc.6XxX'.;.XXvXn.*X).T.W.1Xc.cX~.",
"FX .+Xq 1.y...j.2.o.p.oX%X1.m ' v ,.2 eX8.h.b 9Xr.j.5 8.  m R gXn t.A B.} R.r.,.1 j 1 T.m a.u.].[ *Xb.'.>.  i i M *Xl.u.B { H.f.",
"+X6.] x.D %.;.oX8.p.9.OX>.&.I G.x o.W.OX/.*.&.ZXO.&.0 @.| ' *.dX(.o.B.XXvXh.+X< q 1 e `.k.5XgX|.*.!.S h.[ 7.1 F.h.zXE.d.i.x.r.!.",
"d N x [ m *.N lX=X*.B | r m m @.%Xh.i.1XE w.M @.g + f 7.w ,.b.[.7 5 gXP.M m ,.p.f w.E..X2.o.k.qXJ ] 9 vXw u.u.xXK v.r.'.{ a.b [.",
"6X1 p.h.z.%.F.2XmX-.z.i o.>.k.lX4.;.F.zXh.+.1.N ..#.U F.@.eX;..Xk.k.] xX5 #Xy [ m e.{ Q.M *Xx ].Y ] @.F.*XfXj.U.!.R.U.S.7.^ c f.",
"^ l (.^ K 1 *.b N B h.#.$X2 [ r $.e V...,.D T.k.E : <.F., w.G /. .0.1Xd.x  .9 k.# L [ .XF.;.1.qX%X=XM x.l.*.`.cXG.;X@.xXk.2.w.w.",
"| - ).,._.j.L.<.(.(.qXu...| fX@X+.9.;.O.N p.H h.k ] I F.4 Y.R.uXB j.M G.- c [ 2.e w ,.oXw.w.S oXT 2 B ; ! m p.GXG w.F.MXj E m e.",
"- R m +X} e ^.A h v NXq = w &...J C +.h.p.m - 8.g : 2 ).p.2.m _.6X8.' m $.r V H.fX1X*.]..XzX .U.-XO.a.[.H.J.F.8X4XH.xXP.y.s.7 H.",
"%X/.} <.<.F.oX1.x B vX9 [ c mXb $.Z |.B 6 W p - 3 5 A oXw 6Xr.GX| ; m ] r g R h.m N g.).n J 2 .X+ #.b lXA K v zXr.w 2 8.v 2 A w.",
">X).y m n r ,.$ j #.vXH.*.| K.:.^.G.Q.,.9 | 2.^.&.&.N.oX1.+.#XJ.6.-.%._.3.4X@.8.F.lXF./.S.5XO.`.j.o.@.^.a.K ,.x o.0 [ q *.p.O.*.",
"*.oXO.7.< m ' v.[ R.).L ,.<.h.e Y , %Xa Q 6 i  .u ( i tX> # $ &.3 2 M [ { v Y *., , z i.6 0 4 xXT N B 2.Y.7 Y x f 4 Q A W.v v h ",
"N lXc  .H ].b.O.*.2.=.C #XB F.% | x gXV 2X%.gX;.h.%.-.] 1X>.+.lXc }.^.gX+.%XF.mX9 ] k ^._ g.7.'.6 m ..D | Q 9 q 3.>.&.[ ^.} w.e.",
"w 3.E < 1 uXu q q 5 T.0 0 f N.U E $ 8XA Q K O.B / f - 2.* g # pXG m b ^.6 Y # O.@ 6 2 k...+.r..Xk.F.1.' h.k v %.XXX...~.).E C 0 ",
"' zX+.mXB .X4X;.+.{ 0.@.|  .b.=.h.y.MXW.K.;.O.T.o._ ' _.e.q > &.gXNXi &.,.< 4 R.fXa.M ^.A T.S x W & . % B } T fX^.} Q w o.5 0 ! ",
"4 k.i E 0 D.W.,.+ %.6 < w 1 q.[ ,...k., 3 U F.@ : 7 r.J.b 0.;.).J.] V F >.k.2. Xa./.5.I.8.@.V +.o.-. .mX'.D.;X).I.(.| 6.H...3X;.",
"2.q ) i e ..J $ $ 1.Q [ a.E O.m a.i R.X X > 5X, , i b b 7 N g ).+ 1 + #.4 r.K _.> D S ^.* X g : 2.v ..S ^.u j 4 d.* N 0 | } h.h.",
"h.v F @.i.% #...l XXn k.F F.=._.=.+.V #.9 [ ^.=X*.{ 3.z.W.D...=X+.9  .^.3.;.B iX{ ,.b } 2 # 0 g (.h.1.v oXB Q # ] m 2  .o.F.7 g ",
"FX> : q 5Xy < 4 G mX6 ( &XmXy : W = < a T.6 3.3 ~ 3 -.a b v v 5X3 E g ;.u b n FX< [ H k.| F.q.=XD.#X+.B d.l 7.&Xr.#Xi.,.{ mX..m ",
"2Xx c 3 xX8.(.F.3XF.;.| 9.k.x H O.2.+.{ 8.[ o.&X] c 2.W : 7 5Xp.j q q q.: > f gXj e W ;.S h 6 3 *.v 7.# lXh w 2 A 8.M w h 9.w < ",
"v ! 1 3 2Xu 5 w BX..Y p X /.X < NX;.b j 6 z  .! g C 1X6 m c =.9.5XF.4XJ.1.k 9.l.:.@X(././.9.q.+.*.@Xo.[ x.9.:.;.#XF.2.F.F.kXC 2X",
"s 2 > T.fX1 [ $X..5 # w W 3.& g ,.*.3 W M 6 $XX e , %.P e.,.K M 5 5 W -.7 h R eX, M 7.n =.J , g ] W : U @XZ z 7 E k., p @ ;.6 5 ",
"yX2Xo.1..Xv E.$X2.7 2.e ) 4.G D W.3.*.0.; 6 1 5 e +.4.6 M { 6 %.R q > h.w M N 3.4 A.M w.o.( > d ;.3 F & 8XY Q 1 X 0.0 t 9 3.m p.",
"Q 6 i / j.# + 3 | $ % F E *.y u 8 ;.. > % z t , z } 2Xu $.F n 2 $ t T i.=.X.0.F.b...| @X .W =.2.G.-.&.5XOXJ.D.F V s.=.#X1.XXD.F.",
"m N 1 *X' x , H F.W b 6 B (.H $.$ %.Y W 7 p Y 5 ..b bXX 1 : m I : > > O.m 6 Z (.i < = , R $ : 4 K.y 1 u H Y h > # gX, h / q K S ",
"<.w.b.| x k #X9.aXB C =.D...K #.| X.C N n i.w +.2.;.).2 #.n.@X).-.2X| 2.{ 1.=X^.G >.' +.;.<.K v.(.a.2.F.7.x =X1 2 @.@.7.N i.F.V ",
"q Y O -.o 4 j / 3.4 U 3 x $ s R # aXu u y a.o ^ X , p.. u & K u #.Z b x U . g s.z l F C C } L 4 V @ , & # l s b n K.T z # n d.| ",
"k c l HXh.B c W.:.7 < } 5.= h 1 Q _.7 9 M ' s + l % ] : A T.4.3 A : $ ' 1 5 8 5.5 S / 4 3.u a $ m 4 # Y > d.J 3 4 F.5 1 = $ rX= ",
"$.N n J.B F 3X| | #. .k .X$.F.i...;.D.| C V E [ < V O.r.i.X.0Xi.| N l W.x N J pX;.;.o.4.5.0 g # 2.x 6 > i [ w e a.>.+.- 6 @ 4X1 ",
"A i $ ;.i 3 _ 2 : 3 # % 4.r j $.v i.@ E @ =.d 0 v F &.$ T b 1X, . $ % V $ % Z s.% T Z @ D.# c @ a.] j.A 4 @.R.c V C +.4 o % W.j ",
"v.5X4 -.2 E : 3.v ` S ,._.> w.D W h ^ : T | r w ~ g o.5 q < 5.W w R b h.& > $ mXu a X : %.> ! u %.*Xi q > ^.P Y @ J ' Y i 7.3.w ",
"7 s $ % } W n 4.=.C C z mXC +.l v $X| | 8.*.v o. .:X5.2.V X.5.C ] 2X;.mXX...v lX+.+.<.X.J.J.=.(.O...gX+.5X&.%.x } 7.).;.#X5./.B ",
"> ! B + & w 4 5.Q 0 E i 4.z : 5 W N $ Z 6 [ % ! 2 , l $ a 6 +.Q E $ 4 ^.R.i U ] $ . o o _.T ) & j M $ @ $ i.6 % s u lX6 1 i S c ",
"f | -.$.o.;.o.mXK M e x +.v W c E 4.F M 6 ;.W.b 6 O e # 1 ! %.3 3 $ $ %.$ P * +X> > 8 u mX4 w i 4 ] . Y P ;.3 b 5 > /.) 5 1 # ' ",
"_ @ 1X& T Z ^ #X& r T u C T G L 4.^ y E # c n $X+ +.+.9.C F 4.L &.D.#.F Z D.=.D.1X&.:.F J.$.k @XC B J.D.J..X!.X.D.+.U.V c k 5.4X",
"w.S } #.2.w.2 f R 1 # ] #.B w W 9.f $ > . @XO g 2 g.F.2 g e (.s @ $ o V.$ % g.;.w 7 A T D.# $ = 5 1.A E > Q C F 7 @ c.& ! z G 4X",
"A b @X{ n e ' j . _ 6 oXA w w M qXo * $ o | #.0 $.4 O.v D = 9.8 w   W &.A i > ;.r.T.> t <.$ # g 1 iX{ O.} R.@X} m ;Xj.m  .7Xi.aX",
"N eX,.m x 2.).V  .=XD.HX..+.;.q.aX| +.; :.(.mX:.CX;.aX4.7X| aX+.| 3.:.LX;.9.4.HXwX;.G.4.3.:.-.(.2XGXq.lX4.+.;.HXsXx GX9.pXpXmXdX"
};
